<?xml version="1.0" standalone="no"?>
<!DOCTYPE svg PUBLIC "-//W3C//DTD SVG 20010904//EN"
 "http://www.w3.org/TR/2001/REC-SVG-20010904/DTD/svg10.dtd">
<svg version="1.0" xmlns="http://www.w3.org/2000/svg"
 width="700.000000pt" height="700.000000pt" viewBox="0 0 700.000000 700.000000"
 preserveAspectRatio="xMidYMid meet">
<metadata>
Created by potrace 1.14, written by Peter Selinger 2001-2017
</metadata>
<g transform="translate(0.000000,700.000000) scale(0.100000,-0.100000)"
fill="#000000" stroke="none">
<path d="M3123 6984 c-1183 -129 -2213 -839 -2747 -1893 -257 -507 -376 -1011
-376 -1591 0 -580 119 -1084 376 -1591 536 -1059 1570 -1769 2758 -1894 189
-20 543 -20 732 0 538 57 1046 231 1497 514 914 572 1507 1525 1622 2606 19
182 19 548 0 730 -73 692 -349 1351 -782 1868 -599 717 -1415 1154 -2338 1252
-173 18 -572 18 -742 -1z m622 -1263 c507 -104 886 -524 944 -1045 15 -128 15
-1926 1 -2016 -23 -142 -128 -293 -246 -353 -116 -59 -87 -57 -945 -57 -757 0
-789 1 -851 20 -183 56 -313 211 -338 405 -8 54 -10 400 -7 1055 4 1065 1
1004 63 1200 100 317 363 598 679 726 223 91 465 113 700 65z m-379 -3616
c121 -22 250 -66 367 -128 l99 -51 -4 -216 c-3 -212 -4 -216 -31 -267 -55
-105 -135 -166 -242 -183 -148 -24 -289 51 -354 189 l-26 56 -3 308 -3 307 54
0 c30 0 94 -7 143 -15z"/>
</g>
</svg>
