<svg width="60" height="61" viewBox="0 0 60 61" fill="none" xmlns="http://www.w3.org/2000/svg">
<path fill-rule="evenodd" clip-rule="evenodd" d="M44.801 43.7853H38.4358V34.5814C38.4358 32.1723 37.4401 30.5276 35.2506 30.5276C33.576 30.5276 32.6446 31.6375 32.2111 32.707C32.0486 33.091 32.074 33.6258 32.074 34.1605V43.7853H25.768C25.768 43.7853 25.8493 27.4815 25.768 25.9994H32.074V28.7908C32.4465 27.5703 34.4615 25.8284 37.6772 25.8284C41.6666 25.8284 44.801 28.3868 44.801 33.8957V43.7853ZM19.391 23.7747H19.3503C17.3184 23.7747 16.001 22.415 16.001 20.6916C16.001 18.9346 17.3574 17.6035 19.43 17.6035C21.5009 17.6035 22.7743 18.9313 22.8149 20.6866C22.8149 22.4101 21.5009 23.7747 19.391 23.7747ZM16.7274 25.9994H22.3408V43.7853H16.7274V25.9994Z" fill="white"/>
</svg>
