<?xml version="1.0" encoding="UTF-8"?>
<svg width="202px" height="202px" viewBox="0 0 202 202" version="1.1" xmlns="http://www.w3.org/2000/svg" xmlns:xlink="http://www.w3.org/1999/xlink">
    <title>4</title>
    <g id="Page-1" stroke="none" stroke-width="1" fill="none" fill-rule="evenodd">
        <g id="4" fill="#FFFFFF" fill-rule="nonzero" opacity="0.5">
            <path d="M8.00115663,0.00171402137 L8.05809889,0 C8.61439453,0 9.06536125,0.45096672 9.06536125,1.00726236 L9.06536125,6.9339941 L14.9927376,6.93463875 C15.5092979,6.93463875 15.9350388,7.3234825 15.9932234,7.82443304 L16,7.94190111 L15.997,8.004 L16,8.05809889 L15.9932234,8.17556696 C15.9350388,8.6765175 15.5092979,9.06536125 14.9927376,9.06536125 L9.06536125,9.0660059 L9.06536125,14.9927376 C9.06536125,15.5490333 8.61439453,16 8.05809889,16 L8.00115663,15.998286 C7.98155,15.9994234 7.96179289,16 7.94190111,16 C7.38560547,16 6.93463875,15.5490333 6.93463875,14.9927376 L6.93463875,9.0660059 L1.00726236,9.06536125 C0.490702123,9.06536125 0.0649612096,8.6765175 0.00677659054,8.17556696 L0,8.05809889 C0,8.03854426 0.000557227565,8.01911977 0.00165667018,7.99984044 C0.000576607953,7.98155 0,7.96179289 0,7.94190111 L0.00677659054,7.82443304 C0.0649612096,7.3234825 0.490702123,6.93463875 1.00726236,6.93463875 L6.93463875,6.9339941 L6.93463875,1.00726236 C6.93463875,0.45096672 7.38560547,0 7.94190111,0 C7.96179289,0 7.98155,0.000576607953 8.00115663,0.00171402137 Z" id="Combined-Shape"></path>
        </g>
    </g>
</svg>