<svg xmlns="http://www.w3.org/2000/svg" viewBox="0 6.099999904632568 136.1999969482422 33.70000076293945" data-asc="0.79" width="136.1999969482422" height="33.70000076293945"><defs/><g><g fill="#000000"><g transform="translate(0, 0)"><path d="M20.10 15.05Q19.80 13.20 18.85 11.85Q16.50 8.45 11.45 8.45Q7.15 8.45 5.20 10.40Q3.40 12.25 3.40 15.35Q3.40 18.85 5.75 20.45Q7.40 21.55 10.80 21.85Q13.85 22.10 15.85 22.63Q17.85 23.15 19.25 24Q22.70 26.15 22.70 30.65Q22.70 32.40 21.98 34Q21.25 35.60 19.95 36.85Q16.85 39.80 11.55 39.80Q6.15 39.80 3.10 36.90Q0.65 34.75 0 31.20L2.35 31.20Q2.90 33.60 4.40 35.05Q5.90 36.50 8 37.10Q9.65 37.55 11.35 37.55Q13.65 37.55 15.65 36.85Q18.60 35.80 19.80 33.30Q20.35 32.05 20.35 30.65Q20.35 27.60 18.40 26.20Q16.20 24.60 10.60 24.10Q1.05 23.35 1.05 15.35Q1.05 13.40 1.73 11.70Q2.40 10 3.60 8.80Q6.35 6.15 11.40 6.15Q16.25 6.15 19.25 8.80Q21.80 11.20 22.45 15.05L20.10 15.05ZM28.65 11.85Q28.00 11.85 27.60 11.42Q27.20 11 27.20 10.35Q27.20 9.70 27.60 9.27Q28.00 8.85 28.65 8.85Q29.30 8.85 29.75 9.27Q30.20 9.70 30.20 10.35Q30.20 11 29.75 11.42Q29.30 11.85 28.65 11.85M27.50 39.50L27.50 14.50L29.80 14.50L29.80 39.50L27.50 39.50ZM41.75 16.75L41.75 39.50L39.45 39.50L39.45 16.75L34.70 16.75L34.70 14.50L39.45 14.50L39.45 6.25L41.75 6.25L41.75 14.50L46.45 14.50L46.45 16.75L41.75 16.75ZM52.80 28.30Q53.60 32.45 56.45 34.95Q59.25 37.45 63.05 37.45Q65.65 37.45 67.80 36.30Q69.95 35.15 71.45 33.15L73.45 34.25Q71.65 36.80 68.95 38.27Q66.25 39.75 63.05 39.75Q60.50 39.75 58.20 38.77Q55.90 37.80 54.15 36.05Q52.40 34.30 51.43 32Q50.45 29.70 50.45 27.15Q50.45 24.60 51.43 22.27Q52.40 19.95 54.15 18.20Q55.85 16.45 58.18 15.50Q60.50 14.55 63.05 14.55Q65.60 14.55 67.93 15.50Q70.25 16.45 71.95 18.20Q73.55 19.85 74.63 22.45Q75.70 25.05 75.70 27.50L75.65 28.30L52.80 28.30M63.05 16.80Q59.25 16.80 56.45 19.30Q53.60 21.80 52.80 25.95L73.30 25.95Q72.50 21.80 69.65 19.30Q66.85 16.80 63.05 16.80ZM96.60 39.70Q93.15 39.70 90.08 38.40Q87 37.10 84.65 34.75Q82.30 32.45 81 29.38Q79.70 26.30 79.70 22.90Q79.70 19.50 81 16.42Q82.30 13.35 84.65 11Q87 8.70 90.10 7.40Q93.20 6.10 96.60 6.10Q100.20 6.10 103.40 7.48Q106.60 8.85 109 11.50L107.25 12.95Q105.15 10.75 102.40 9.57Q99.65 8.40 96.60 8.40Q93.65 8.40 90.98 9.52Q88.30 10.65 86.30 12.65Q84.25 14.65 83.13 17.30Q82 19.95 82 22.90Q82 25.85 83.13 28.50Q84.25 31.15 86.30 33.15Q88.30 35.15 90.98 36.27Q93.65 37.40 96.60 37.40Q99.65 37.40 102.40 36.23Q105.15 35.05 107.25 32.85L108.95 34.30Q106.55 36.90 103.35 38.30Q100.15 39.70 96.60 39.70ZM125.80 27.25L125.80 39.50L123.45 39.50L123.45 27.35L113 6.25L115.55 6.25L124.60 24.50L133.65 6.25L136.20 6.25L125.80 27.25Z"/></g></g></g></svg>