<?xml version="1.0" encoding="UTF-8"?>
<svg xmlns="http://www.w3.org/2000/svg" width="214" height="61" viewBox="0 0 214 61" fill="none">
  <path d="M32.8199 33.1959L26.0076 26.4593L32.8199 19.7227H26.0076L19.1953 26.4593L22.6015 29.8654L29.4138 36.5263L32.8199 33.1959Z" fill="black"></path>
  <path d="M37.6638 29.8655L34.2576 26.4594L30.8515 23.1289L27.521 26.4594L34.2576 33.196L27.4453 39.9326H34.2576L37.6638 36.6021L41.0699 33.196L37.6638 29.8655Z" fill="black"></path>
  <path d="M49.5454 26.4801C48.5614 26.4801 47.7288 26.7829 47.1233 27.4641C46.5178 28.1453 46.215 29.0536 46.215 30.2647C46.215 31.4758 46.5177 32.3841 47.0476 33.0653C47.6531 33.7466 48.4101 34.0493 49.4697 34.0493C50.151 34.0493 50.8322 33.8979 51.6648 33.6709V34.6549C50.9836 34.8819 50.2267 35.0333 49.3184 35.0333C47.9559 35.0333 46.8962 34.6549 46.1393 33.8222C45.3824 32.9896 45.0039 31.7786 45.0039 30.2647C45.0039 29.2807 45.1553 28.4481 45.5338 27.7669C45.9122 27.0856 46.4421 26.4801 47.0476 26.1016C47.6531 25.7232 48.4857 25.4961 49.4697 25.4961C50.4537 25.4961 51.2864 25.6475 52.0433 26.0259L51.5891 26.9342C50.9836 26.7072 50.3024 26.4801 49.5454 26.4801Z" fill="black"></path>
  <path d="M59.0056 32.4495C59.0056 33.2822 58.7028 33.8877 58.0973 34.3418C57.4917 34.796 56.7348 35.0231 55.6751 35.0231C54.5397 35.0231 53.7071 34.8717 53.1016 34.5689V33.5092C53.48 33.6606 53.9342 33.812 54.3126 33.8877C54.6911 33.9634 55.2209 34.0391 55.6751 34.0391C56.432 34.0391 56.9619 33.8877 57.2646 33.6606C57.6431 33.3578 57.7945 32.9794 57.7945 32.5252C57.7945 32.2225 57.7188 31.9197 57.5674 31.7683C57.416 31.5412 57.1889 31.3898 56.8862 31.1628C56.5834 31.0114 56.1293 30.7843 55.5237 30.5572C54.6911 30.2545 54.0099 29.876 53.7071 29.4218C53.3286 28.9677 53.1773 28.4378 53.1773 27.7566C53.1773 27.0754 53.48 26.4698 54.0099 26.0157C54.5397 25.5615 55.2966 25.4102 56.1293 25.4102C57.0376 25.4102 57.8702 25.5615 58.7028 25.94L58.4 26.8483C57.6431 26.5455 56.8862 26.3942 56.1293 26.3942C55.5237 26.3942 55.1453 26.5455 54.7668 26.7726C54.464 26.9997 54.3126 27.3782 54.3126 27.8323C54.3126 28.1351 54.3883 28.4378 54.464 28.5892C54.6154 28.8163 54.7668 28.9677 55.0696 29.1191C55.3723 29.2705 55.7508 29.4975 56.3563 29.7246C57.3403 30.1031 58.0216 30.4815 58.4 30.86C58.8542 31.3142 59.0056 31.844 59.0056 32.4495Z" fill="black"></path>
  <path d="M66.197 32.4495C66.197 33.2822 65.8942 33.8877 65.2887 34.3418C64.6831 34.796 63.9262 35.0231 62.8665 35.0231C61.7311 35.0231 60.8985 34.8717 60.293 34.5689V33.5092C60.6714 33.6606 61.1256 33.812 61.504 33.8877C61.8825 33.9634 62.4124 34.0391 62.8665 34.0391C63.6234 34.0391 64.1533 33.8877 64.456 33.6606C64.8345 33.3578 64.9859 32.9794 64.9859 32.5252C64.9859 32.2225 64.9102 31.9197 64.7588 31.7683C64.6074 31.5412 64.3804 31.3898 64.0776 31.1628C63.7748 31.0114 63.3207 30.7843 62.7151 30.5572C61.8825 30.2545 61.2013 29.876 60.8985 29.4218C60.52 28.9677 60.3687 28.4378 60.3687 27.7566C60.3687 27.0754 60.6714 26.4698 61.2013 26.0157C61.7311 25.5615 62.488 25.4102 63.3207 25.4102C64.229 25.4102 65.0616 25.5615 65.8942 25.94L65.5914 26.8483C64.8345 26.5455 64.0776 26.3942 63.3207 26.3942C62.7151 26.3942 62.3367 26.5455 61.9582 26.7726C61.6554 26.9997 61.504 27.3782 61.504 27.8323C61.504 28.1351 61.5797 28.4378 61.6554 28.5892C61.8068 28.8163 61.9582 28.9677 62.261 29.1191C62.5637 29.2705 62.9422 29.4975 63.5477 29.7246C64.5317 30.1031 65.213 30.4815 65.5914 30.86C65.9699 31.3142 66.197 31.844 66.197 32.4495Z" fill="black"></path>
  <path d="M75.6586 30.1104C75.6586 31.6242 75.2045 32.8353 74.3719 33.6679C73.5392 34.5005 72.3282 34.9547 70.7386 34.9547H67.7109V25.6445H70.89C72.4039 25.6445 73.5392 26.023 74.3719 26.7799C75.2045 27.5368 75.6586 28.6722 75.6586 30.1104ZM73.0851 30.1861C73.0851 29.3535 72.9337 28.6722 72.5552 28.2938C72.2525 27.9153 71.7226 27.6882 71.0414 27.6882H70.2845V32.911H70.8143C71.5712 32.911 72.1011 32.6839 72.4795 32.2298C72.9337 31.7756 73.0851 31.0944 73.0851 30.1861Z" fill="black"></path>
  <path d="M80.6538 35.099C79.4427 35.099 78.5344 34.7962 77.8531 34.115C77.1719 33.5095 76.8691 32.6012 76.8691 31.3901C76.8691 30.179 77.1719 29.2707 77.7774 28.5895C78.383 27.9082 79.2913 27.6055 80.4267 27.6055C81.4864 27.6055 82.319 27.9082 82.9245 28.4381C83.5301 28.9679 83.8328 29.8005 83.8328 30.8602V31.9956H79.367C79.367 32.3741 79.5184 32.6769 79.8211 32.9796C80.1239 33.2067 80.5024 33.3581 80.9565 33.3581C81.4107 33.3581 81.7891 33.2824 82.1676 33.2067C82.5461 33.131 82.9245 32.9796 83.3787 32.7525V34.5692C83.0002 34.7962 82.6218 34.8719 82.1676 34.9476C81.7134 35.0233 81.2593 35.099 80.6538 35.099ZM80.5024 29.3464C80.1996 29.3464 79.9725 29.4221 79.7454 29.6492C79.5184 29.8005 79.4427 30.1033 79.367 30.4818H81.4864C81.4864 30.1033 81.4107 29.8762 81.1836 29.6492C81.1079 29.4221 80.8808 29.3464 80.5024 29.3464Z" fill="black"></path>
  <path d="M90.7965 32.7574C90.7965 33.5143 90.5695 34.1199 90.0396 34.4983C89.5098 34.8768 88.7529 35.1039 87.7689 35.1039C87.239 35.1039 86.7848 35.1039 86.4064 35.0282C86.0279 34.9525 85.5738 34.8768 85.1953 34.7254V32.7574C85.5738 32.9088 86.0279 33.0602 86.4821 33.2116C86.9362 33.2873 87.3147 33.3629 87.6932 33.3629C88.223 33.3629 88.5258 33.2116 88.5258 32.9845C88.5258 32.8331 88.4501 32.7574 88.2987 32.6817C88.1473 32.606 87.6932 32.3789 87.0119 32.0762C86.3307 31.7734 85.8765 31.4706 85.6495 31.1679C85.4224 30.7894 85.271 30.4109 85.271 29.8811C85.271 29.1999 85.4981 28.67 86.0279 28.2916C86.5578 27.9131 87.239 27.7617 88.223 27.7617C88.6772 27.7617 89.1313 27.8374 89.5855 27.9131C90.0396 27.9888 90.4181 28.1402 90.8722 28.3673L90.191 29.9568C89.8882 29.8054 89.5098 29.654 89.1313 29.5783C88.7528 29.5026 88.4501 29.4269 88.223 29.4269C87.8445 29.4269 87.6175 29.5026 87.6175 29.7297C87.6175 29.8811 87.6932 29.9568 87.8445 30.0325C87.9959 30.1082 88.3744 30.2596 89.0556 30.5623C89.5855 30.7894 89.9639 30.9408 90.191 31.1679C90.4181 31.3949 90.6452 31.622 90.7208 31.8491C90.7208 32.0005 90.7965 32.379 90.7965 32.7574Z" fill="black"></path>
  <path d="M92.1623 25.944C92.1623 25.5655 92.238 25.2627 92.4651 25.1114C92.6922 24.96 92.9949 24.8086 93.4491 24.8086C93.9032 24.8086 94.2817 24.8843 94.4331 25.1114C94.6602 25.2627 94.7359 25.5655 94.7359 25.944C94.7359 26.7009 94.2817 27.0037 93.3734 27.0037C92.5408 27.0794 92.1623 26.7009 92.1623 25.944ZM94.6602 34.9514H92.1623V27.7606H94.6602V34.9514Z" fill="black"></path>
  <path d="M103.21 27.7569V28.9679L102.226 29.3464C102.378 29.5735 102.453 29.8762 102.453 30.179C102.453 30.9359 102.151 31.5415 101.621 31.9956C101.091 32.4498 100.258 32.6012 99.1986 32.6012C98.8959 32.6012 98.7445 32.6012 98.5931 32.5255C98.5174 32.6012 98.5174 32.7525 98.5174 32.8282C98.5174 32.9796 98.5931 33.0553 98.8202 33.131C99.0473 33.2067 99.2743 33.2067 99.5771 33.2067H100.788C102.378 33.2067 103.21 33.8879 103.21 35.2504C103.21 36.1587 102.832 36.8399 102.075 37.2941C101.318 37.7482 100.258 38.051 98.8959 38.051C97.9119 38.051 97.0793 37.8996 96.5494 37.5212C96.0196 37.2184 95.7168 36.6885 95.7168 36.083C95.7168 35.2504 96.2466 34.6449 97.3063 34.4178C97.0793 34.3421 96.9279 34.1907 96.7008 33.9636C96.5494 33.7365 96.4737 33.5852 96.4737 33.3581C96.4737 33.131 96.5494 32.9039 96.6251 32.7525C96.7765 32.6012 97.0036 32.3741 97.382 32.147C97.0036 31.9956 96.7008 31.6929 96.4737 31.3901C96.2466 31.0116 96.1709 30.6332 96.1709 30.1033C96.1709 29.3464 96.4737 28.7409 97.0036 28.2867C97.5334 27.8325 98.2903 27.6055 99.2743 27.6055C99.4257 27.6055 99.6528 27.6055 99.9556 27.6812C100.258 27.6812 100.485 27.7569 100.637 27.7569H103.21ZM97.7605 35.8559C97.7605 36.083 97.8362 36.2344 98.0633 36.3858C98.2903 36.5372 98.5931 36.5372 98.9716 36.5372C99.5771 36.5372 100.031 36.4615 100.41 36.3101C100.788 36.1587 100.94 35.9316 100.94 35.7045C100.94 35.4775 100.864 35.4018 100.637 35.3261C100.41 35.2504 100.107 35.1747 99.6528 35.1747H98.6688C98.366 35.1747 98.2146 35.2504 97.9876 35.3261C97.8362 35.4775 97.7605 35.6289 97.7605 35.8559ZM98.5174 30.1033C98.5174 30.8602 98.7445 31.2387 99.2743 31.2387C99.5014 31.2387 99.7285 31.163 99.8042 30.9359C99.9556 30.7845 100.031 30.4818 100.031 30.1033C100.031 29.3464 99.8042 28.9679 99.2743 28.9679C98.8202 28.9679 98.5174 29.3464 98.5174 30.1033Z" fill="black"></path>
  <path d="M108.813 31.0165C108.813 30.5623 108.737 30.1839 108.585 29.9568C108.434 29.7297 108.207 29.5783 107.904 29.5783C107.45 29.5783 107.147 29.7297 106.996 30.1082C106.845 30.4109 106.693 31.0165 106.693 31.8491V35.0282H104.195V27.8374H106.088L106.39 28.7457H106.542C106.769 28.4429 107.072 28.1402 107.45 27.9888C107.829 27.8374 108.283 27.7617 108.737 27.7617C109.569 27.7617 110.175 27.9888 110.629 28.443C111.083 28.8971 111.31 29.5783 111.31 30.4109V35.1039H108.813V31.0165Z" fill="black"></path>
  <path d="M119.258 34.9547L118.123 32.0027H114.414L113.278 34.9547H112.219L115.928 25.6445H116.836L120.469 34.9547H119.258ZM117.744 31.0187L116.685 28.1424C116.533 27.7639 116.382 27.3098 116.23 26.7799C116.155 27.1584 116.003 27.6125 115.852 28.1424L114.792 31.0187H117.744Z" fill="black"></path>
  <path d="M127.206 34.9466L125.919 30.8592C125.843 30.6321 125.692 30.0266 125.465 29.194H125.389C125.238 29.9509 125.086 30.4807 124.935 30.9349L123.648 35.0223H122.437L120.545 28.0586H121.68C122.134 29.7995 122.437 31.162 122.74 32.0703C122.967 32.9786 123.118 33.5841 123.118 33.8869H123.194C123.27 33.6598 123.346 33.3571 123.421 32.9786C123.497 32.6001 123.648 32.2974 123.724 32.0703L125.011 28.0586H126.146L127.357 32.0703C127.584 32.8272 127.736 33.4327 127.811 33.8869H127.887C127.887 33.7355 127.963 33.5084 128.038 33.2057C128.114 32.9029 128.568 31.162 129.325 28.0586H130.385L128.493 35.0223H127.206V34.9466Z" fill="black"></path>
  <path d="M135.911 34.9549L135.684 33.9709H135.608C135.229 34.4251 134.927 34.7278 134.548 34.8792C134.17 35.0306 133.791 35.1063 133.261 35.1063C132.58 35.1063 132.05 34.9549 131.672 34.5765C131.293 34.198 131.066 33.7438 131.066 33.0626C131.066 31.6245 132.202 30.9432 134.473 30.8675L135.684 30.7918V30.3377C135.684 29.8078 135.532 29.3537 135.305 29.1266C135.078 28.8995 134.7 28.7482 134.17 28.7482C133.564 28.7482 132.959 28.8995 132.202 29.278L131.899 28.4454C132.277 28.294 132.58 28.1426 133.034 27.9912C133.413 27.9155 133.867 27.8398 134.245 27.8398C135.078 27.8398 135.684 27.9912 136.062 28.3697C136.441 28.7482 136.668 29.3537 136.668 30.1106V34.8792H135.911V34.9549ZM133.489 34.198C134.17 34.198 134.624 34.0466 135.002 33.6682C135.381 33.2897 135.532 32.8355 135.532 32.1543V31.5488L134.473 31.6245C133.64 31.6245 133.034 31.7758 132.656 32.0029C132.277 32.23 132.126 32.6085 132.126 33.0626C132.126 33.4411 132.277 33.7438 132.505 33.8952C132.807 34.1223 133.11 34.198 133.489 34.198Z" fill="black"></path>
  <path d="M142.042 27.8398C142.345 27.8398 142.648 27.8398 142.875 27.9155L142.724 28.8995C142.421 28.8238 142.194 28.8238 141.967 28.8238C141.437 28.8238 140.907 29.0509 140.529 29.5051C140.15 29.9592 139.923 30.5648 139.923 31.246V34.9549H138.863V27.9912H139.696L139.847 29.278H139.923C140.15 28.8238 140.529 28.4454 140.831 28.2183C141.21 27.9912 141.588 27.8398 142.042 27.8398Z" fill="black"></path>
  <path d="M148.928 34.0504C148.398 34.7316 147.642 35.11 146.658 35.11C145.749 35.11 145.068 34.8073 144.538 34.2017C144.008 33.5962 143.781 32.6879 143.781 31.5525C143.781 30.4171 144.008 29.5088 144.538 28.9033C145.068 28.2977 145.749 27.9193 146.658 27.9193C147.566 27.9193 148.323 28.2977 148.853 28.979H148.928L148.853 28.4491V25.043H149.912V34.9587H149.08L148.928 34.0504ZM146.809 34.2017C147.566 34.2017 148.02 33.9747 148.398 33.5962C148.701 33.2177 148.853 32.5365 148.853 31.7039V31.4768C148.853 30.4928 148.701 29.8116 148.323 29.3574C148.02 28.9033 147.49 28.7519 146.733 28.7519C146.128 28.7519 145.674 28.979 145.295 29.5088C144.992 29.963 144.765 30.6442 144.765 31.5525C144.765 32.4608 144.917 33.142 145.219 33.5962C145.674 33.9747 146.128 34.2017 146.809 34.2017Z" fill="black"></path>
  <path d="M156.65 33.0626C156.65 33.7438 156.423 34.198 155.893 34.5765C155.439 34.9549 154.758 35.1063 153.849 35.1063C152.941 35.1063 152.184 34.9549 151.654 34.6522V33.6682C151.957 33.8195 152.336 33.9709 152.714 34.0466C153.092 34.1223 153.471 34.198 153.849 34.198C154.379 34.198 154.833 34.1223 155.136 33.9709C155.439 33.8195 155.59 33.5168 155.59 33.1383C155.59 32.8355 155.439 32.6085 155.212 32.4571C154.985 32.23 154.531 32.0029 153.849 31.7758C153.168 31.5488 152.714 31.3217 152.487 31.1703C152.184 31.0189 152.033 30.7918 151.881 30.5648C151.73 30.3377 151.654 30.0349 151.654 29.7322C151.654 29.2023 151.881 28.7482 152.336 28.3697C152.79 27.9912 153.395 27.8398 154.228 27.8398C154.985 27.8398 155.742 27.9912 156.423 28.294L156.044 29.1266C155.363 28.8238 154.682 28.6725 154.152 28.6725C153.622 28.6725 153.244 28.7482 153.017 28.8995C152.79 29.0509 152.638 29.278 152.638 29.5808C152.638 29.7322 152.714 29.9592 152.79 30.0349C152.865 30.1863 153.017 30.262 153.244 30.4134C153.471 30.5648 153.849 30.7162 154.455 30.9432C155.288 31.246 155.817 31.5488 156.12 31.8515C156.499 32.23 156.65 32.6085 156.65 33.0626Z" fill="black"></path>
  <path fill-rule="evenodd" clip-rule="evenodd" d="M177.345 22.7454C177.13 21.4561 178.124 20.2826 179.431 20.2826H187.209C188.516 20.2826 189.51 21.4561 189.295 22.7454L189.247 23.0326H192.487C192.901 23.0326 193.237 23.3683 193.237 23.7826C193.237 27.2838 190.727 30.1971 187.408 30.8244C187.378 30.83 187.348 30.8338 187.318 30.8359C186.821 31.4696 186.179 31.9787 185.445 32.3172V34.9492H186.987C187.907 34.9492 188.653 35.6954 188.653 36.6159V38.6159H190.653C191.068 38.6159 191.403 38.9517 191.403 39.3659C191.403 39.7801 191.068 40.1159 190.653 40.1159H175.987C175.573 40.1159 175.237 39.7801 175.237 39.3659C175.237 38.9517 175.573 38.6159 175.987 38.6159H177.987V36.6159C177.987 35.6954 178.733 34.9492 179.653 34.9492H181.195V32.3172C180.461 31.9787 179.819 31.4696 179.322 30.8359C179.292 30.8338 179.262 30.83 179.232 30.8244C175.913 30.1971 173.403 27.2838 173.403 23.7826C173.403 23.3683 173.739 23.0326 174.153 23.0326H177.393L177.345 22.7454ZM179.02 23.6714C179.019 23.6627 179.017 23.654 179.016 23.6453L178.825 22.4988C178.762 22.1238 179.051 21.7826 179.431 21.7826H187.209C187.589 21.7826 187.878 22.1238 187.815 22.4988L187.624 23.6453C187.623 23.654 187.621 23.6627 187.62 23.6714L186.85 28.2925C186.562 30.0179 185.069 31.2826 183.32 31.2826C181.571 31.2826 180.078 30.0179 179.79 28.2925L179.02 23.6714ZM177.643 24.5326H174.953C175.222 26.5716 176.576 28.2693 178.416 29.0259C178.374 28.8668 178.338 28.7044 178.311 28.5391L177.643 24.5326ZM188.997 24.5326L188.329 28.5391C188.302 28.7044 188.266 28.8668 188.224 29.0259C190.064 28.2693 191.418 26.5716 191.688 24.5326H188.997ZM182.695 32.7826V34.9492H183.945V32.7826H182.695ZM179.653 36.4492C179.561 36.4492 179.487 36.5238 179.487 36.6159V38.6159H187.153V36.6159C187.153 36.5238 187.079 36.4492 186.987 36.4492H179.653Z" fill="black"></path>
</svg>
