<?xml version="1.0" encoding="UTF-8"?>
<svg xmlns="http://www.w3.org/2000/svg" width="172" height="61" viewBox="0 0 172 61" fill="none">
  <path d="M82.9753 35.6088C82.7299 35.8542 82.3061 36.0104 81.86 36.0104C81.2577 36.0104 80.7669 35.475 80.7669 34.7166V29.006H83.2876V26.8199H80.7669V23.7638H78.2239V35.0512C78.2239 36.925 79.5177 38.2634 81.3692 38.2634C82.2392 38.2634 83.1538 37.9065 83.7784 37.3711L82.9753 35.6088Z" fill="black"></path>
  <path d="M25.8322 31.2854C24.1146 30.7723 23.423 30.5716 23.423 29.8354C23.423 29.0547 24.2038 28.6086 25.2076 28.6086C26.2337 28.6086 27.3937 29.0324 28.4421 29.7016L29.4683 27.917C28.2637 27.114 26.7245 26.5786 25.2076 26.5786C22.7092 26.6009 20.9916 28.0286 20.9916 30.1031C20.9916 32.1331 22.5308 32.8023 24.9399 33.4492C26.2783 33.8061 27.3268 34.0961 27.3268 34.9884C27.3268 35.7691 26.613 36.2599 25.4307 36.2599C24.2038 36.2599 22.7984 35.7691 21.5939 34.8991L20.4785 36.6391C21.8169 37.7098 23.6684 38.3121 25.3861 38.3121C27.9737 38.3121 29.7806 36.9291 29.7806 34.7653C29.7806 32.4454 27.7283 31.8208 25.8322 31.2854Z" fill="black"></path>
  <path d="M65.1227 25.1549C65.9481 25.1549 66.595 24.4411 66.595 23.638C66.595 22.8349 65.9481 22.1434 65.1227 22.1434C64.2751 22.1434 63.6059 22.8349 63.6059 23.638C63.6059 24.4411 64.2751 25.1549 65.1227 25.1549Z" fill="black"></path>
  <path d="M66.4441 26.8471H63.8118V38.023H66.4441V26.8471Z" fill="black"></path>
  <path d="M61.4834 22.9027H58.8512V38.0269H61.4834V22.9027Z" fill="black"></path>
  <path d="M55.9242 36.0327C55.3219 36.0327 54.8311 35.4973 54.8311 34.7389V29.006H57.3518V26.8199H54.8311V23.7638H53.3812C53.3812 24.5445 53.1358 25.2584 52.7343 25.7937C52.2881 26.396 51.6189 26.7976 50.8828 26.7976H50.5259L50.1243 29.0283H52.2658V35.0735C52.2658 36.9473 53.5596 38.2857 55.4111 38.2857C56.2811 38.2857 57.1957 37.9288 57.8203 37.3934L57.0618 35.6088C56.7942 35.8542 56.3703 36.0327 55.9242 36.0327Z" fill="black"></path>
  <path d="M46.0066 29.2121V26.8475H43.3743V38.0234H46.0066V32.6251C46.0066 30.5059 47.2335 29.0559 49.3749 29.0559L49.7988 26.8475C47.3896 26.8252 46.7204 27.7621 46.0066 29.2121Z" fill="black"></path>
  <path d="M36.2792 26.5971C32.9778 26.5971 30.2563 29.2071 30.2563 32.4416C30.2563 35.6761 32.9555 38.3083 36.2792 38.3083C39.5583 38.3083 42.2575 35.6761 42.2575 32.4416C42.2575 29.2071 39.5583 26.5971 36.2792 26.5971ZM36.2792 36.0553C34.4054 36.0553 32.8662 34.4269 32.8662 32.4416C32.8662 30.4563 34.4054 28.8501 36.2792 28.8501C38.1307 28.8501 39.6476 30.4563 39.6476 32.4416C39.6476 34.4269 38.1307 36.0553 36.2792 36.0553Z" fill="black"></path>
  <path d="M73.1841 31.2854C71.4664 30.7723 70.7749 30.5716 70.7749 29.8354C70.7749 29.0547 71.5556 28.6086 72.5595 28.6086C73.5856 28.6086 74.7456 29.0324 75.794 29.7016L76.8201 27.917C75.6155 27.114 74.0763 26.5786 72.5595 26.5786C70.0611 26.5786 68.3434 28.0063 68.3434 30.0808C68.3434 32.1108 69.8826 32.78 72.2918 33.4269C73.6302 33.7838 74.6786 34.0738 74.6786 34.9661C74.6786 35.7468 73.9648 36.2376 72.7825 36.2376C71.5556 36.2376 70.1503 35.7468 68.9457 34.8768L67.8304 36.6168C69.1688 37.6875 71.0203 38.2898 72.7379 38.2898C75.3255 38.2898 77.1324 36.9068 77.1324 34.743C77.1324 32.4454 75.0802 31.8208 73.1841 31.2854Z" fill="black"></path>
  <path fill-rule="evenodd" clip-rule="evenodd" d="M109.388 21.432C109.828 21.231 110.333 21.231 110.773 21.432C111.107 21.5845 111.325 21.8578 111.484 22.0957C111.643 22.3326 111.814 22.6464 112.01 23.0054L113.486 25.7117C113.546 25.8218 113.579 25.8815 113.605 25.9251C113.618 25.9454 113.625 25.9552 113.627 25.9588C113.639 25.9709 113.652 25.9811 113.667 25.9893C113.671 25.9909 113.682 25.9951 113.705 26.002C113.754 26.0167 113.82 26.0334 113.941 26.0638L117.111 26.8563C117.472 26.9464 117.791 27.0262 118.042 27.1138C118.298 27.2033 118.594 27.3367 118.82 27.599C119.122 27.9498 119.264 28.4101 119.213 28.8699C119.174 29.2137 119.004 29.4912 118.843 29.7096C118.686 29.9232 118.467 30.1692 118.22 30.447L116.147 32.7792C116.066 32.87 116.023 32.9195 115.992 32.958C115.977 32.9759 115.97 32.9854 115.968 32.9889C115.961 33.0034 115.955 33.0189 115.952 33.0349C115.952 33.0391 115.952 33.0508 115.953 33.0738C115.954 33.1233 115.959 33.1891 115.968 33.3103L116.225 36.6494C116.257 37.0588 116.284 37.4166 116.28 37.7027C116.276 37.9898 116.242 38.3389 116.044 38.6492C115.784 39.0579 115.358 39.333 114.879 39.4029C114.515 39.4559 114.182 39.3438 113.919 39.2299C113.656 39.1163 113.341 38.9445 112.981 38.7479L110.423 37.3526C110.287 37.2787 110.213 37.2383 110.155 37.2112C110.129 37.1985 110.115 37.1932 110.109 37.1914C110.09 37.1878 110.07 37.1878 110.05 37.1913C110.045 37.1932 110.031 37.1985 110.004 37.2111C109.947 37.2382 109.872 37.2786 109.737 37.3523L107.178 38.7456C106.818 38.9418 106.503 39.1133 106.24 39.2266C105.977 39.3403 105.644 39.4521 105.28 39.3989C104.801 39.3288 104.376 39.0536 104.116 38.645C103.918 38.3347 103.884 37.9859 103.88 37.6989C103.876 37.4129 103.904 37.0554 103.935 36.6463L104.192 33.3103C104.201 33.1891 104.206 33.1233 104.208 33.0738C104.208 33.0508 104.208 33.0391 104.208 33.0348C104.205 33.0189 104.2 33.0034 104.192 32.9889C104.19 32.9854 104.183 32.9759 104.169 32.9579C104.137 32.9194 104.094 32.87 104.013 32.7791L101.94 30.447C101.693 30.1691 101.474 29.9232 101.317 29.7096C101.156 29.4912 100.986 29.2137 100.948 28.8699C100.896 28.4102 101.039 27.9498 101.34 27.599C101.566 27.3367 101.863 27.2033 102.119 27.1138C102.369 27.0262 102.688 26.9464 103.049 26.8563L103.081 26.8483L106.219 26.0638C106.34 26.0334 106.406 26.0167 106.455 26.002C106.478 25.9951 106.489 25.9909 106.493 25.9892C106.508 25.9811 106.521 25.9709 106.533 25.9588C106.535 25.9552 106.542 25.9454 106.555 25.9251C106.581 25.8815 106.614 25.8218 106.674 25.7118L108.15 23.0053C108.346 22.6463 108.517 22.3325 108.676 22.0956C108.836 21.8577 109.054 21.5845 109.388 21.432ZM110.031 22.7887C110.016 22.8044 109.98 22.8447 109.922 22.9312C109.806 23.1039 109.668 23.3559 109.451 23.7533L107.991 26.4301C107.983 26.4439 107.976 26.4579 107.968 26.472C107.879 26.6367 107.778 26.8214 107.635 26.9764C107.51 27.1115 107.363 27.2248 107.201 27.3119C107.015 27.4119 106.811 27.4625 106.629 27.5075C106.613 27.5114 106.598 27.5152 106.583 27.519L103.445 28.3035C103.042 28.4041 102.791 28.4676 102.614 28.5297C102.526 28.5603 102.483 28.5821 102.466 28.5916C102.448 28.6192 102.437 28.6519 102.437 28.6854C102.446 28.7028 102.469 28.7449 102.524 28.8195C102.636 28.9709 102.807 29.1651 103.083 29.4749L105.134 31.7826C105.144 31.794 105.154 31.8055 105.165 31.8171C105.286 31.9528 105.422 32.105 105.518 32.2866C105.601 32.4449 105.659 32.6155 105.688 32.7921C105.721 32.9947 105.705 33.198 105.691 33.3793C105.69 33.3949 105.689 33.4102 105.687 33.4254L105.433 36.7276C105.398 37.1805 105.377 37.4683 105.38 37.677C105.382 37.7816 105.39 37.8352 105.394 37.8567C105.415 37.8824 105.444 37.9011 105.476 37.9102C105.498 37.9052 105.55 37.8907 105.646 37.8492C105.838 37.7666 106.092 37.6292 106.491 37.412L109.019 36.035C109.037 36.0256 109.054 36.0161 109.071 36.0066C109.273 35.8961 109.499 35.7723 109.75 35.7217C109.968 35.6776 110.193 35.6777 110.411 35.7219C110.662 35.7727 110.887 35.8967 111.089 36.0073C111.107 36.0169 111.124 36.0264 111.141 36.0357L113.669 37.4148C114.068 37.6324 114.322 37.7701 114.514 37.8529C114.61 37.8945 114.662 37.909 114.684 37.914C114.716 37.905 114.745 37.8863 114.766 37.8606C114.77 37.8391 114.779 37.7854 114.78 37.6807C114.783 37.4719 114.762 37.1839 114.727 36.7307L114.473 33.4253C114.472 33.4101 114.47 33.3948 114.469 33.3792C114.455 33.1979 114.439 32.9946 114.472 32.792C114.502 32.6155 114.559 32.4448 114.643 32.2866C114.738 32.105 114.874 31.9528 114.995 31.8171C115.006 31.8055 115.016 31.794 115.026 31.7826L117.077 29.4749C117.353 29.1651 117.524 28.9709 117.636 28.8195C117.691 28.7449 117.714 28.7028 117.723 28.6854C117.723 28.6519 117.713 28.6192 117.694 28.5916C117.677 28.5821 117.634 28.5603 117.546 28.5297C117.369 28.4676 117.118 28.4041 116.716 28.3035L113.578 27.5191C113.562 27.5152 113.547 27.5114 113.531 27.5076C113.349 27.4625 113.145 27.4119 112.959 27.3119C112.797 27.2248 112.65 27.1114 112.525 26.9764C112.382 26.8213 112.281 26.6366 112.192 26.4719C112.184 26.4578 112.177 26.4438 112.169 26.43L110.709 23.7533C110.493 23.3559 110.354 23.1039 110.238 22.9312C110.18 22.8447 110.145 22.8044 110.129 22.7887C110.097 22.7788 110.063 22.7788 110.031 22.7887Z" fill="black"></path>
  <path d="M145.838 37.4247C142.544 37.4247 140.546 34.8417 140.546 30.7107V30.6927C140.546 26.5617 142.544 23.9877 145.838 23.9877C149.132 23.9877 151.13 26.5617 151.13 30.6927V30.7107C151.13 34.8417 149.132 37.4247 145.838 37.4247ZM145.838 35.2467C147.458 35.2467 148.385 33.5637 148.385 30.7107V30.6927C148.385 27.8397 147.458 26.1657 145.838 26.1657C144.218 26.1657 143.291 27.8397 143.291 30.6927V30.7107C143.291 33.5637 144.218 35.2467 145.838 35.2467Z" fill="black"></path>
  <path d="M138.205 37.3527C137.386 37.3527 136.747 36.7047 136.747 35.8947C136.747 35.0757 137.386 34.4367 138.205 34.4367C139.015 34.4367 139.663 35.0757 139.663 35.8947C139.663 36.7047 139.015 37.3527 138.205 37.3527Z" fill="black"></path>
  <path d="M130.825 37.4247C127.999 37.4247 126.127 35.7777 125.965 33.6087L125.956 33.4737H128.467L128.485 33.5367C128.674 34.5177 129.583 35.2737 130.834 35.2737C132.256 35.2737 133.255 34.3017 133.255 32.9157V32.8977C133.246 31.5297 132.247 30.5667 130.843 30.5667C130.177 30.5667 129.61 30.7647 129.169 31.1157C128.908 31.3137 128.701 31.5657 128.548 31.8357H126.181L126.775 24.2127H135.064V26.3727H128.935L128.62 30.0267H128.674C129.214 29.1537 130.285 28.6227 131.599 28.6227C134.065 28.6227 135.847 30.3957 135.847 32.8437V32.8617C135.847 35.5797 133.795 37.4247 130.825 37.4247Z" fill="black"></path>
</svg>
