<?xml version="1.0" encoding="UTF-8"?>
<svg xmlns="http://www.w3.org/2000/svg" width="211" height="61" viewBox="0 0 211 61" fill="none">
  <path d="M44.0078 23.4145H54.7515V25.4146H50.5213V36.6893H48.2026V25.4146H43.9901L44.0078 23.4145ZM54.2913 27.0783H56.2737V28.9368H56.3091C56.3799 28.6713 56.5038 28.4235 56.6808 28.1757C56.8578 27.9279 57.0702 27.6978 57.3357 27.5031C57.5834 27.2907 57.8666 27.1314 58.1852 27.0075C58.4861 26.8836 58.8047 26.8128 59.1233 26.8128C59.3711 26.8128 59.5481 26.8305 59.6366 26.8305C59.7251 26.8482 59.8313 26.8659 59.9198 26.8659V28.9014C59.7782 28.866 59.6189 28.8483 59.4596 28.8306C59.3003 28.8129 59.1587 28.7952 58.9994 28.7952C58.6454 28.7952 58.3091 28.866 57.9905 29.0076C57.6719 29.1492 57.4065 29.3616 57.1587 29.6271C56.9286 29.9103 56.7339 30.2466 56.5923 30.6537C56.4507 31.0608 56.3799 31.5386 56.3799 32.0696V36.6362H54.2559L54.2913 27.0783ZM67.5661 36.6893V35.3441H67.5307C67.2652 35.8397 66.8758 36.2114 66.3625 36.5123C65.8492 36.8132 65.3182 36.9548 64.7872 36.9548C63.5305 36.9548 62.6102 36.6539 62.0438 36.0167C61.4774 35.3972 61.1942 34.4414 61.1942 33.1847V27.0783H63.3181V32.9723C63.3181 33.8219 63.4774 34.4237 63.8137 34.76C64.1323 35.114 64.5925 35.291 65.1766 35.291C65.6191 35.291 65.9908 35.2202 66.2917 35.0786C66.5926 34.937 66.8404 34.76 67.0174 34.5299C67.2121 34.2998 67.336 34.0166 67.4245 33.698C67.513 33.3794 67.5484 33.0254 67.5484 32.6537V27.0783H69.6723V36.6893H67.5661ZM73.2654 33.6095C73.3362 34.229 73.5663 34.6538 73.9734 34.9193C74.3805 35.1671 74.876 35.291 75.4424 35.291C75.6371 35.291 75.8672 35.2733 76.115 35.2379C76.3628 35.2025 76.6106 35.1494 76.823 35.0609C77.0531 34.9724 77.2301 34.8485 77.3717 34.6715C77.5133 34.4945 77.5841 34.2821 77.5664 34.0166C77.5487 33.7511 77.4602 33.521 77.2655 33.344C77.0708 33.167 76.8407 33.0431 76.5575 32.9192C76.2743 32.813 75.938 32.7245 75.5663 32.6537C75.1946 32.5829 74.8229 32.4944 74.4336 32.4059C74.0442 32.3174 73.6548 32.2112 73.2831 32.0873C72.9114 31.9634 72.5928 31.8041 72.2919 31.574C72.0087 31.3616 71.7609 31.0962 71.6016 30.7599C71.4246 30.4236 71.3361 30.0342 71.3361 29.5386C71.3361 29.0076 71.46 28.5828 71.7255 28.2288C71.9733 27.8748 72.3096 27.5916 72.699 27.3792C73.0884 27.1668 73.5309 27.0075 74.0088 26.919C74.4867 26.8305 74.9468 26.7951 75.3716 26.7951C75.8672 26.7951 76.3451 26.8482 76.7876 26.9544C77.2301 27.0606 77.6549 27.2199 78.0089 27.4677C78.3806 27.6978 78.6815 28.0164 78.9116 28.3881C79.1594 28.7598 79.301 29.22 79.3718 29.751H77.1593C77.0531 29.2377 76.823 28.9014 76.469 28.7244C76.0973 28.5474 75.6902 28.4589 75.2123 28.4589C75.0707 28.4589 74.876 28.4766 74.6813 28.4943C74.469 28.5297 74.292 28.5651 74.0973 28.6359C73.9203 28.7067 73.761 28.8129 73.6371 28.9368C73.5132 29.0607 73.4424 29.2377 73.4424 29.4501C73.4424 29.7156 73.5309 29.9103 73.7079 30.0696C73.8849 30.2289 74.115 30.3528 74.4159 30.4767C74.699 30.5829 75.0353 30.6714 75.407 30.7422C75.7787 30.813 76.1681 30.9015 76.5575 30.99C76.9469 31.0785 77.3186 31.1847 77.6903 31.3085C78.062 31.4324 78.3983 31.5917 78.6815 31.8218C78.9647 32.0342 79.2125 32.2997 79.3895 32.6183C79.5665 32.9369 79.655 33.344 79.655 33.8042C79.655 34.3706 79.5311 34.8485 79.2656 35.2556C79.0001 35.645 78.6638 35.9813 78.2567 36.2291C77.8496 36.4769 77.3717 36.6539 76.8761 36.7778C76.3628 36.884 75.8672 36.9548 75.3716 36.9548C74.7698 36.9548 74.2035 36.884 73.6902 36.7424C73.1769 36.6008 72.7167 36.3884 72.345 36.1229C71.9733 35.8397 71.6724 35.5034 71.46 35.0786C71.2476 34.6715 71.1237 34.1759 71.106 33.5918H73.2477V33.6095H73.2654ZM80.2567 27.0783H81.8674V24.1756H83.9914V27.0606H85.9029V28.6359H83.9914V33.7688C83.9914 33.9989 84.0091 34.1759 84.0268 34.3529C84.0445 34.5122 84.0976 34.6538 84.1507 34.76C84.2215 34.8662 84.3277 34.9547 84.4516 35.0078C84.5932 35.0609 84.7702 35.0963 85.018 35.0963C85.1596 35.0963 85.3189 35.0963 85.4605 35.0786C85.6021 35.0609 85.7613 35.0432 85.9029 35.0078V36.6539C85.6729 36.6893 85.4428 36.707 85.2127 36.7247C84.9826 36.7601 84.7702 36.7601 84.5224 36.7601C83.956 36.7601 83.5135 36.707 83.1772 36.6008C82.8409 36.4946 82.5754 36.3353 82.3807 36.1406C82.186 35.9282 82.0621 35.6804 81.9913 35.3795C81.9205 35.0786 81.8851 34.7069 81.8674 34.3175V28.6536H80.2567V27.0429V27.0783ZM87.3897 27.0783H89.3898V28.3881H89.4252C89.7261 27.8217 90.1332 27.4323 90.6642 27.1845C91.1952 26.9367 91.7615 26.8128 92.3987 26.8128C93.1598 26.8128 93.8147 26.9367 94.3811 27.2199C94.9475 27.4854 95.4077 27.8394 95.7794 28.3173C96.1511 28.7775 96.4343 29.3262 96.6113 29.9457C96.7883 30.5652 96.8945 31.2378 96.8945 31.928C96.8945 32.5829 96.806 33.2024 96.6467 33.8042C96.4697 34.406 96.2219 34.9547 95.8856 35.4149C95.5493 35.8751 95.1245 36.2468 94.5935 36.53C94.0625 36.8131 93.4607 36.9548 92.7527 36.9548C92.4518 36.9548 92.1332 36.9194 91.8323 36.8663C91.5314 36.8132 91.2306 36.7247 90.9474 36.6008C90.6642 36.4769 90.3987 36.3176 90.1686 36.1229C89.9208 35.9282 89.7261 35.6981 89.5668 35.4503H89.5314V40.2469H87.4074V27.0783H87.3897ZM94.8059 31.8926C94.8059 31.4678 94.7528 31.0431 94.6289 30.636C94.5227 30.2289 94.3457 29.8749 94.1156 29.5563C93.8855 29.2377 93.6023 28.9899 93.2837 28.7952C92.9474 28.6005 92.558 28.512 92.1332 28.512C91.2483 28.512 90.5757 28.8129 90.1155 29.4324C89.673 30.0519 89.4429 30.8838 89.4429 31.9103C89.4429 32.4059 89.496 32.8484 89.6199 33.2555C89.7438 33.6626 89.9031 34.0166 90.1509 34.3175C90.381 34.6184 90.6642 34.8485 91.0005 35.0255C91.3368 35.2025 91.7084 35.291 92.1509 35.291C92.6465 35.291 93.0359 35.1848 93.3722 34.9901C93.7085 34.7954 93.974 34.5299 94.2041 34.229C94.4165 33.9104 94.5758 33.5564 94.6643 33.1493C94.7528 32.7245 94.8059 32.3174 94.8059 31.8926ZM98.5405 23.4145H100.664V25.4146H98.5405V23.4145ZM98.5405 27.0783H100.664V36.6893H98.5405V27.0783ZM102.558 23.4145H104.682V36.6893H102.558V23.4145ZM111.16 36.9548C110.399 36.9548 109.709 36.8309 109.107 36.5654C108.505 36.2999 108.01 35.9636 107.585 35.5211C107.178 35.0786 106.859 34.5299 106.647 33.9104C106.435 33.2909 106.311 32.6006 106.311 31.8749C106.311 31.1493 106.417 30.4767 106.647 29.8572C106.859 29.2377 107.178 28.7067 107.585 28.2465C107.992 27.804 108.505 27.45 109.107 27.2022C109.709 26.9544 110.399 26.8128 111.16 26.8128C111.921 26.8128 112.612 26.9367 113.214 27.2022C113.815 27.45 114.311 27.804 114.736 28.2465C115.143 28.689 115.461 29.2377 115.674 29.8572C115.886 30.4767 116.01 31.1493 116.01 31.8749C116.01 32.6183 115.904 33.2909 115.674 33.9104C115.444 34.5299 115.143 35.0609 114.736 35.5211C114.329 35.9636 113.815 36.3176 113.214 36.5654C112.612 36.8132 111.939 36.9548 111.16 36.9548ZM111.16 35.2733C111.621 35.2733 112.045 35.1671 112.382 34.9724C112.736 34.7777 113.001 34.5122 113.231 34.1936C113.461 33.875 113.621 33.5033 113.727 33.1139C113.833 32.7068 113.886 32.2997 113.886 31.8749C113.886 31.4678 113.833 31.0608 113.727 30.6537C113.621 30.2466 113.461 29.8926 113.231 29.574C113.001 29.2554 112.718 29.0076 112.382 28.8129C112.028 28.6182 111.621 28.512 111.16 28.512C110.7 28.512 110.275 28.6182 109.939 28.8129C109.585 29.0076 109.32 29.2731 109.09 29.574C108.859 29.8926 108.7 30.2466 108.594 30.6537C108.488 31.0608 108.435 31.4678 108.435 31.8749C108.435 32.2997 108.488 32.7068 108.594 33.1139C108.7 33.521 108.859 33.875 109.09 34.1936C109.32 34.5122 109.603 34.7777 109.939 34.9724C110.293 35.1848 110.7 35.2733 111.16 35.2733ZM116.647 27.0783H118.258V24.1756H120.382V27.0606H122.294V28.6359H120.382V33.7688C120.382 33.9989 120.4 34.1759 120.417 34.3529C120.435 34.5122 120.488 34.6538 120.541 34.76C120.612 34.8662 120.718 34.9547 120.842 35.0078C120.984 35.0609 121.161 35.0963 121.409 35.0963C121.55 35.0963 121.709 35.0963 121.851 35.0786C121.993 35.0609 122.152 35.0432 122.294 35.0078V36.6539C122.063 36.6893 121.833 36.707 121.603 36.7247C121.373 36.7601 121.161 36.7601 120.913 36.7601C120.347 36.7601 119.904 36.707 119.568 36.6008C119.231 36.4946 118.966 36.3353 118.771 36.1406C118.577 35.9282 118.453 35.6804 118.382 35.3795C118.311 35.0786 118.276 34.7069 118.258 34.3175V28.6536H116.647V27.0429V27.0783Z" fill="black"></path>
  <path d="M41.4703 27.1259H33.5937L31.1691 19.6367L28.7301 27.1259L20.8535 27.1115L27.2236 31.7457L24.7846 39.2348L31.1547 34.6007L37.5248 39.2348L35.1002 31.7457L41.4703 27.1259Z" fill="black"></path>
  <path d="M35.6446 33.4408L35.0994 31.7478L31.1683 34.6029L35.6446 33.4408Z" fill="black"></path>
  <path fill-rule="evenodd" clip-rule="evenodd" d="M148.505 21.4327C148.945 21.2317 149.451 21.2318 149.891 21.4328C150.225 21.5853 150.443 21.8586 150.602 22.0965C150.761 22.3334 150.932 22.6472 151.128 23.0061L152.604 25.7125C152.664 25.8225 152.697 25.8822 152.723 25.9258C152.736 25.9462 152.743 25.956 152.745 25.9595C152.757 25.9716 152.77 25.9819 152.785 25.99C152.789 25.9916 152.8 25.9959 152.823 26.0027C152.872 26.0175 152.938 26.0342 153.059 26.0646L156.229 26.857C156.59 26.9471 156.909 27.0269 157.159 27.1145C157.415 27.204 157.712 27.3374 157.938 27.5997C158.239 27.9505 158.382 28.4109 158.33 28.8707C158.292 29.2144 158.122 29.492 157.961 29.7103C157.804 29.9239 157.585 30.1699 157.338 30.4478L155.265 32.7799C155.184 32.8708 155.141 32.9202 155.109 32.9587C155.095 32.9766 155.088 32.9861 155.086 32.9897C155.078 33.0041 155.073 33.0196 155.07 33.0356C155.07 33.0399 155.07 33.0515 155.07 33.0745C155.072 33.124 155.077 33.1898 155.086 33.311L155.343 36.6501C155.374 37.0596 155.402 37.4173 155.398 37.7034C155.394 37.9906 155.36 38.3396 155.162 38.65C154.901 39.0586 154.476 39.3337 153.997 39.4036C153.632 39.4567 153.3 39.3445 153.037 39.2306C152.774 39.1171 152.459 38.9452 152.098 38.7486L149.54 37.3533C149.405 37.2795 149.33 37.2391 149.273 37.2119C149.246 37.1993 149.232 37.1939 149.227 37.1921C149.208 37.1885 149.188 37.1885 149.168 37.1921C149.163 37.1939 149.149 37.1993 149.122 37.2119C149.065 37.239 148.99 37.2793 148.855 37.3531L146.296 38.7463C145.936 38.9425 145.621 39.114 145.358 39.2273C145.094 39.341 144.762 39.4529 144.398 39.3996C143.919 39.3295 143.494 39.0543 143.234 38.6457C143.036 38.3355 143.002 37.9866 142.998 37.6996C142.994 37.4136 143.021 37.0561 143.053 36.647L143.31 33.311C143.319 33.1898 143.324 33.124 143.325 33.0745C143.326 33.0515 143.326 33.0399 143.325 33.0356C143.323 33.0196 143.317 33.0041 143.31 32.9896C143.308 32.9861 143.301 32.9766 143.286 32.9587C143.255 32.9202 143.212 32.8707 143.131 32.7799L141.058 30.4477C140.811 30.1699 140.592 29.9239 140.435 29.7103C140.274 29.492 140.104 29.2144 140.065 28.8707C140.014 28.4109 140.156 27.9505 140.458 27.5997C140.683 27.3374 140.98 27.204 141.236 27.1145C141.487 27.0269 141.806 26.9471 142.167 26.857L142.199 26.8491L145.337 26.0646C145.458 26.0342 145.524 26.0175 145.573 26.0027C145.596 25.9959 145.607 25.9916 145.611 25.99C145.626 25.9819 145.639 25.9716 145.651 25.9595C145.653 25.956 145.66 25.9462 145.672 25.9258C145.699 25.8822 145.732 25.8225 145.792 25.7125L147.268 23.006C147.464 22.6471 147.635 22.3333 147.794 22.0964C147.954 21.8585 148.172 21.5852 148.505 21.4327ZM149.149 22.7894C149.134 22.8051 149.098 22.8455 149.04 22.9319C148.924 23.1046 148.786 23.3566 148.569 23.754L147.109 26.4308C147.101 26.4446 147.094 26.4586 147.086 26.4727C146.997 26.6374 146.896 26.8221 146.753 26.9772C146.628 27.1122 146.481 27.2256 146.319 27.3127C146.133 27.4127 145.929 27.4632 145.747 27.5083C145.731 27.5121 145.716 27.516 145.7 27.5198L142.562 28.3043C142.16 28.4048 141.909 28.4684 141.731 28.5305C141.644 28.561 141.601 28.5828 141.584 28.5923C141.565 28.6199 141.555 28.6526 141.555 28.6861C141.564 28.7035 141.587 28.7457 141.642 28.8202C141.754 28.9717 141.925 29.1658 142.201 29.4757L144.252 31.7833C144.262 31.7947 144.272 31.8062 144.283 31.8179C144.404 31.9535 144.54 32.1057 144.635 32.2874C144.719 32.4456 144.776 32.6163 144.806 32.7928C144.839 32.9954 144.823 33.1988 144.809 33.3801C144.808 33.3956 144.806 33.411 144.805 33.4262L144.551 36.7283C144.516 37.1812 144.495 37.469 144.498 37.6777C144.499 37.7823 144.507 37.8359 144.512 37.8575C144.533 37.8832 144.562 37.9018 144.594 37.9109C144.616 37.9059 144.668 37.8914 144.764 37.85C144.956 37.7673 145.209 37.63 145.608 37.4127L148.137 36.0357C148.154 36.0264 148.172 36.0169 148.189 36.0073C148.391 35.8968 148.617 35.773 148.868 35.7224C149.086 35.6784 149.31 35.6784 149.529 35.7226C149.779 35.7735 150.005 35.8974 150.207 36.008C150.224 36.0176 150.242 36.0271 150.259 36.0365L152.787 37.4155C153.186 37.6332 153.44 37.7708 153.632 37.8537C153.728 37.8952 153.78 37.9098 153.801 37.9148C153.834 37.9057 153.863 37.8871 153.884 37.8614C153.888 37.8398 153.896 37.7861 153.898 37.6815C153.901 37.4726 153.88 37.1846 153.845 36.7314L153.59 33.4261C153.589 33.4109 153.588 33.3955 153.587 33.38C153.573 33.1987 153.556 32.9954 153.59 32.7927C153.619 32.6162 153.677 32.4456 153.76 32.2874C153.856 32.1057 153.992 31.9536 154.113 31.8179C154.123 31.8063 154.134 31.7948 154.144 31.7834L156.195 29.4757C156.471 29.1658 156.642 28.9717 156.754 28.8202C156.809 28.7457 156.832 28.7035 156.841 28.6861C156.841 28.6526 156.83 28.6199 156.812 28.5923C156.795 28.5828 156.752 28.561 156.664 28.5305C156.487 28.4684 156.235 28.4048 155.833 28.3043L152.695 27.5198C152.68 27.516 152.665 27.5122 152.649 27.5083C152.467 27.4632 152.263 27.4127 152.077 27.3127C151.915 27.2255 151.768 27.1122 151.643 26.9771C151.499 26.8221 151.399 26.6374 151.31 26.4726C151.302 26.4585 151.295 26.4445 151.287 26.4307L149.827 23.7541C149.61 23.3566 149.472 23.1046 149.356 22.9319C149.298 22.8455 149.262 22.8051 149.247 22.7894C149.215 22.7795 149.181 22.7795 149.149 22.7894Z" fill="black"></path>
  <path d="M184.955 37.4254C181.661 37.4254 179.663 34.8424 179.663 30.7114V30.6934C179.663 26.5624 181.661 23.9884 184.955 23.9884C188.249 23.9884 190.247 26.5624 190.247 30.6934V30.7114C190.247 34.8424 188.249 37.4254 184.955 37.4254ZM184.955 35.2474C186.575 35.2474 187.502 33.5644 187.502 30.7114V30.6934C187.502 27.8404 186.575 26.1664 184.955 26.1664C183.335 26.1664 182.408 27.8404 182.408 30.6934V30.7114C182.408 33.5644 183.335 35.2474 184.955 35.2474Z" fill="black"></path>
  <path d="M177.322 37.3534C176.503 37.3534 175.864 36.7054 175.864 35.8954C175.864 35.0764 176.503 34.4374 177.322 34.4374C178.132 34.4374 178.78 35.0764 178.78 35.8954C178.78 36.7054 178.132 37.3534 177.322 37.3534Z" fill="black"></path>
  <path d="M169.942 37.4254C167.116 37.4254 165.244 35.7784 165.082 33.6094L165.073 33.4744H167.584L167.602 33.5374C167.791 34.5184 168.7 35.2744 169.951 35.2744C171.373 35.2744 172.372 34.3024 172.372 32.9164V32.8984C172.363 31.5304 171.364 30.5674 169.96 30.5674C169.294 30.5674 168.727 30.7654 168.286 31.1164C168.025 31.3144 167.818 31.5664 167.665 31.8364H165.298L165.892 24.2134H174.181V26.3734H168.052L167.737 30.0274H167.791C168.331 29.1544 169.402 28.6234 170.716 28.6234C173.182 28.6234 174.964 30.3964 174.964 32.8444V32.8624C174.964 35.5804 172.912 37.4254 169.942 37.4254Z" fill="black"></path>
</svg>
