<?xml version="1.0" encoding="UTF-8"?>
<svg xmlns="http://www.w3.org/2000/svg" width="187" height="61" viewBox="0 0 187 61" fill="none">
  <path d="M20.1891 29.7077C20.581 27.6696 22.3839 26.2587 24.8922 26.2587C27.7925 26.2587 30.0657 27.5129 30.0657 31.4321V38.722H27.5573L27.2438 37.1543C26.3815 38.2517 25.2057 38.9572 23.4813 38.9572C21.3648 38.9572 19.7188 37.6246 19.7188 35.1947C19.7188 32.7647 21.9135 31.197 24.9706 31.197H27.0086V30.6483C27.0086 29.2374 25.9896 28.8454 24.8138 28.8454C23.9516 28.8454 23.0893 29.159 22.6974 30.2564L20.1891 29.7077ZM24.1867 36.3704C25.5977 36.3704 27.0086 35.4298 27.0086 33.8621V33.6269H25.049C23.7164 33.5486 22.9326 34.0973 22.9326 35.1947C22.9326 35.7434 23.4029 36.3704 24.1867 36.3704Z" fill="black"></path>
  <path d="M79.2945 29.7077C79.6865 27.6696 81.4893 26.2587 83.9977 26.2587C86.8979 26.2587 89.1711 27.5129 89.1711 31.4321V38.722H86.6628L86.3492 37.1543C85.487 38.2517 84.3112 38.9572 82.5867 38.9572C80.4703 38.9572 78.8242 37.6246 78.8242 35.1947C78.8242 32.7647 81.019 31.197 84.0761 31.197H86.1141V30.6483C86.1141 29.2374 85.0951 28.8454 83.9193 28.8454C83.057 28.8454 82.1948 29.159 81.8029 30.2564L79.2945 29.7077ZM83.2922 36.3704C84.7031 36.3704 86.1141 35.4298 86.1141 33.8621V33.6269H84.0761C82.7435 33.6269 81.9596 34.0973 81.9596 35.1947C82.038 35.7434 82.5083 36.3704 83.2922 36.3704Z" fill="black"></path>
  <path d="M91.9141 38.8004V26.4155H94.9711V28.4535C95.8333 26.9642 97.2443 26.2587 98.5768 26.2587C99.1255 26.2587 99.5959 26.3371 100.066 26.4939L99.5175 29.3157C99.1256 29.0806 98.7336 28.9238 98.2633 28.9238C96.4604 28.9238 94.9711 30.4131 94.9711 34.3324V38.722L91.9141 38.8004Z" fill="black"></path>
  <path d="M106.571 26.2433C107.825 26.2433 109.001 26.8704 109.55 27.5759V21.4618H112.607V38.7851H109.55V37.5309C109.158 38.158 108.061 39.0202 106.571 39.0202C102.887 39.0202 101.006 36.4335 101.006 32.671C101.006 28.9085 102.887 26.2433 106.571 26.2433ZM107.042 36.3551C108.609 36.3551 109.863 35.0225 109.863 32.5926C109.863 30.1626 108.609 28.8301 107.042 28.8301C105.474 28.8301 104.22 30.1626 104.22 32.5926C104.22 35.0225 105.474 36.3551 107.042 36.3551Z" fill="black"></path>
  <path d="M123.583 28.2032L121.78 29.8493C121.232 29.0655 120.37 28.7519 119.742 28.7519C119.115 28.7519 118.567 29.1439 118.567 29.7709C118.567 30.3196 119.037 30.7116 119.742 30.9467C121.467 31.5738 124.21 32.1225 124.21 34.7092C124.21 36.9824 122.486 38.7853 119.821 38.7853C117.234 38.7853 115.51 36.9824 114.961 35.4931L117.391 34.1605C117.861 35.3363 118.645 36.1986 119.899 36.1986C120.84 36.1986 121.467 35.7283 121.467 34.866C121.467 33.847 119.899 33.6118 118.41 32.9848C117.077 32.4361 115.902 31.5738 115.902 29.6926C115.902 27.8113 117.469 26.0868 119.821 26.0868C121.389 26.1652 122.878 27.0275 123.583 28.2032Z" fill="black"></path>
  <path d="M60.4015 26.4071L58.2067 34.9512L56.0903 26.4071H53.2684L51.2303 34.9512L49.5059 30.0129L49.2707 30.5616L48.3301 33.7754L49.8978 38.7921H52.5629L54.6793 30.7967L56.7957 38.7921H59.5392L63.4585 26.4071H60.4015Z" fill="black"></path>
  <path d="M75.058 26.4071L72.8632 34.9512L70.7468 26.4071H67.9249L65.8869 34.9512L64.1624 30.0129L63.9272 30.5616L62.9082 33.7754L64.5543 38.7921H67.2194L69.3358 30.7967L71.4522 38.7921H74.1174L78.115 26.4071H75.058Z" fill="black"></path>
  <path d="M48.8022 26.4073L44.8829 38.7139H42.2178L40.1014 30.7969L37.985 38.7922H35.3198L31.4006 26.4857H34.4576L36.6524 34.9513L38.7688 26.4857H41.5907L43.7071 34.9513L45.9019 26.4857L48.8022 26.4073Z" fill="black"></path>
  <path d="M128.208 34.8056C129.384 34.8056 130.246 35.6678 130.246 36.8436C130.246 38.0194 129.384 38.8816 128.208 38.8816C127.032 38.8816 126.17 38.0194 126.17 36.8436C126.17 35.6678 127.032 34.8056 128.208 34.8056Z" fill="black"></path>
  <path fill-rule="evenodd" clip-rule="evenodd" d="M150.628 22.748C150.413 21.4587 151.407 20.2852 152.714 20.2852H160.491C161.798 20.2852 162.792 21.4587 162.577 22.748L162.53 23.0352H165.769C166.183 23.0352 166.519 23.3709 166.519 23.7852C166.519 27.2864 164.009 30.1997 160.691 30.827C160.661 30.8326 160.631 30.8365 160.601 30.8385C160.104 31.4722 159.461 31.9813 158.728 32.3198V34.9518H160.269C161.19 34.9518 161.936 35.698 161.936 36.6185V38.6185H163.936C164.35 38.6185 164.686 38.9543 164.686 39.3685C164.686 39.7827 164.35 40.1185 163.936 40.1185H149.269C148.855 40.1185 148.519 39.7827 148.519 39.3685C148.519 38.9543 148.855 38.6185 149.269 38.6185H151.269V36.6185C151.269 35.698 152.015 34.9518 152.936 34.9518H154.478V32.3198C153.744 31.9813 153.101 31.4722 152.604 30.8385C152.575 30.8365 152.544 30.8326 152.514 30.827C149.196 30.1997 146.686 27.2864 146.686 23.7852C146.686 23.3709 147.022 23.0352 147.436 23.0352H150.676L150.628 22.748ZM152.303 23.674C152.301 23.6653 152.3 23.6566 152.298 23.6479L152.107 22.5014C152.045 22.1264 152.334 21.7852 152.714 21.7852H160.491C160.871 21.7852 161.16 22.1264 161.098 22.5014L160.907 23.6479C160.905 23.6566 160.904 23.6653 160.902 23.674L160.132 28.2951C159.845 30.0205 158.352 31.2852 156.603 31.2852C154.853 31.2852 153.36 30.0205 153.073 28.2951L152.303 23.674ZM150.926 24.5352H148.235C148.505 26.5742 149.859 28.2719 151.699 29.0285C151.656 28.8694 151.621 28.707 151.593 28.5417L150.926 24.5352ZM162.28 24.5352L161.612 28.5417C161.584 28.707 161.549 28.8694 161.506 29.0285C163.346 28.2719 164.7 26.5742 164.97 24.5352H162.28ZM155.978 32.7852V34.9518H157.228V32.7852H155.978ZM152.936 36.4518C152.844 36.4518 152.769 36.5264 152.769 36.6185V38.6185H160.436V36.6185C160.436 36.5264 160.361 36.4518 160.269 36.4518H152.936Z" fill="black"></path>
</svg>
