<?xml version="1.0" encoding="UTF-8"?>
<svg xmlns="http://www.w3.org/2000/svg" width="165" height="61" viewBox="0 0 165 61" fill="none">
  <path d="M35.209 22.1988H37.7689V38.1983H35.209V22.1988ZM46.7287 33.0944C46.7287 35.543 44.6698 35.7382 44.0574 35.7382C42.5272 35.7382 42.2488 34.3059 42.2488 33.442V27.3186H39.6889V33.4292C39.6889 34.9459 40.165 36.1977 40.9995 37.0323C41.7368 37.7702 42.8414 38.1733 44.0382 38.1733C44.8868 38.1733 46.0887 37.909 46.7287 37.3247V38.1983H49.2886V27.3186H46.7287V33.0944ZM54.4084 23.4787H51.8485V27.3186H49.9286V29.8785H51.8485V38.1983H54.4084V29.8785H56.3284V27.3186H54.4084V23.4787ZM64.3902 34.9453C63.8328 35.4464 63.0968 35.7241 62.2892 35.7241C60.5088 35.7241 59.2013 34.4166 59.2013 32.6215C59.2013 30.8263 60.4672 29.5739 62.2892 29.5739C63.0828 29.5739 63.8328 29.8382 64.4043 30.3393L64.7928 30.6734L66.5188 28.948L66.0868 28.5583C65.0712 27.6412 63.7227 27.1266 62.2885 27.1266C59.0886 27.1266 56.7649 29.4357 56.7649 32.6081C56.7649 35.767 59.1443 38.1586 62.2885 38.1586C63.7496 38.1586 65.1121 37.6441 66.115 36.7123L66.5323 36.3225L64.7794 34.5984L64.3902 34.9453ZM75.6558 28.2671C74.9186 27.5298 74.0546 27.1266 72.8578 27.1266C72.0092 27.1266 71.048 27.3909 70.408 27.9746V22.1988H67.8481V38.1983H70.408V32.2049C70.408 29.7563 72.1475 29.5617 72.7599 29.5617C74.2901 29.5617 74.2479 30.9947 74.2479 31.8574V38.1983H76.8078V31.8708C76.8078 30.354 76.491 29.1022 75.6558 28.2671Z" fill="black"></path>
  <path d="M62.2122 30.7925C62.703 30.7925 63.1738 30.9875 63.5209 31.3346C63.868 31.6817 64.063 32.1525 64.063 32.6433C64.063 33.1342 63.868 33.605 63.5209 33.9521C63.1738 34.2992 62.703 34.4942 62.2122 34.4942C61.7213 34.4942 61.2505 34.2992 60.9034 33.9521C60.5563 33.605 60.3613 33.1342 60.3613 32.6433C60.3613 32.1525 60.5563 31.6817 60.9034 31.3346C61.2505 30.9875 61.7213 30.7925 62.2122 30.7925Z" fill="black"></path>
  <path d="M31.6288 34.185C30.6553 35.1866 29.3331 35.7293 27.9418 35.7293C25.0901 35.7293 23.0165 33.4893 23.0165 30.4149C23.0165 27.3263 25.0901 25.0864 27.9418 25.0864C29.3197 25.0864 30.6272 25.6284 31.6153 26.6166L32.0044 27.0063L33.7157 25.295L33.3401 24.9053C31.9212 23.4442 30.0013 22.6519 27.9418 22.6519C23.7403 22.6519 20.582 25.9907 20.582 30.4283C20.582 34.8525 23.7544 38.1778 27.9418 38.1778C30.0154 38.1778 31.9353 37.3715 33.3541 35.9104L33.7298 35.5206L32.0326 33.7818L31.6288 34.185Z" fill="black"></path>
  <path fill-rule="evenodd" clip-rule="evenodd" d="M102.722 21.432C103.162 21.231 103.668 21.231 104.107 21.432C104.441 21.5845 104.659 21.8578 104.819 22.0957C104.978 22.3326 105.149 22.6464 105.344 23.0054L106.821 25.7117C106.881 25.8218 106.913 25.8815 106.94 25.9251C106.952 25.9454 106.959 25.9552 106.962 25.9588C106.973 25.9709 106.987 25.9811 107.001 25.9893C107.005 25.9909 107.017 25.9951 107.039 26.002C107.088 26.0167 107.154 26.0334 107.276 26.0638L110.446 26.8563C110.806 26.9464 111.126 27.0262 111.376 27.1138C111.632 27.2033 111.929 27.3367 112.154 27.599C112.456 27.9498 112.598 28.4101 112.547 28.8699C112.509 29.2137 112.339 29.4912 112.178 29.7096C112.02 29.9232 111.802 30.1692 111.555 30.447L109.482 32.7792C109.401 32.87 109.357 32.9195 109.326 32.958C109.312 32.9759 109.305 32.9854 109.302 32.9889C109.295 33.0034 109.29 33.0189 109.287 33.0349C109.287 33.0391 109.286 33.0508 109.287 33.0738C109.289 33.1233 109.293 33.1891 109.303 33.3103L109.56 36.6494C109.591 37.0588 109.619 37.4166 109.614 37.7027C109.61 37.9898 109.576 38.3389 109.379 38.6492C109.118 39.0579 108.693 39.333 108.213 39.4029C107.849 39.4559 107.517 39.3438 107.253 39.2299C106.991 39.1163 106.676 38.9445 106.315 38.7479L103.757 37.3526C103.622 37.2787 103.547 37.2383 103.49 37.2112C103.463 37.1985 103.449 37.1932 103.444 37.1914C103.424 37.1878 103.404 37.1878 103.385 37.1913C103.379 37.1932 103.365 37.1985 103.339 37.2111C103.281 37.2382 103.207 37.2786 103.071 37.3523L100.513 38.7456C100.152 38.9418 99.8373 39.1133 99.5746 39.2266C99.3111 39.3403 98.9789 39.4521 98.6149 39.3989C98.1356 39.3288 97.7105 39.0536 97.4504 38.645C97.2528 38.3347 97.2188 37.9859 97.2146 37.6989C97.2105 37.4129 97.238 37.0554 97.2695 36.6463L97.5264 33.3103C97.5357 33.1891 97.5406 33.1233 97.5421 33.0738C97.5427 33.0508 97.5424 33.0391 97.5421 33.0348C97.5392 33.0189 97.534 33.0034 97.5266 32.9889C97.5243 32.9854 97.5175 32.9759 97.503 32.9579C97.4719 32.9194 97.4282 32.87 97.3474 32.7791L95.2744 30.447C95.0274 30.1691 94.8088 29.9232 94.6513 29.7096C94.4903 29.4912 94.3204 29.2137 94.2821 28.8699C94.2309 28.4102 94.3731 27.9498 94.6747 27.599C94.9002 27.3367 95.197 27.2033 95.4531 27.1138C95.7036 27.0262 96.0228 26.9464 96.3835 26.8563L96.4153 26.8483L99.5532 26.0638C99.6748 26.0334 99.7408 26.0167 99.7897 26.002C99.8125 25.9951 99.8238 25.9909 99.8279 25.9892C99.8424 25.9811 99.8557 25.9709 99.8672 25.9588C99.8699 25.9552 99.8768 25.9454 99.8892 25.9251C99.9157 25.8815 99.9485 25.8218 100.009 25.7118L101.485 23.0053C101.681 22.6463 101.852 22.3325 102.011 22.0956C102.17 21.8577 102.388 21.5845 102.722 21.432ZM103.366 22.7887C103.35 22.8044 103.314 22.8447 103.256 22.9312C103.141 23.1039 103.002 23.3559 102.786 23.7533L101.325 26.4301C101.318 26.4439 101.31 26.4579 101.303 26.472C101.213 26.6367 101.113 26.8214 100.969 26.9764C100.844 27.1115 100.698 27.2248 100.535 27.3119C100.349 27.4119 100.145 27.4625 99.9633 27.5075C99.9477 27.5114 99.9323 27.5152 99.917 27.519L96.7791 28.3035C96.3769 28.4041 96.1258 28.4676 95.9482 28.5297C95.8607 28.5603 95.8178 28.5821 95.8008 28.5916C95.782 28.6192 95.7719 28.6519 95.7719 28.6854C95.7805 28.7028 95.8037 28.7449 95.8587 28.8195C95.9703 28.9709 96.1419 29.1651 96.4173 29.4749L98.4686 31.7826C98.4787 31.794 98.4889 31.8055 98.4993 31.8171C98.6204 31.9528 98.7562 32.105 98.8521 32.2866C98.9356 32.4449 98.9931 32.6155 99.0224 32.7921C99.0559 32.9947 99.0399 33.198 99.0255 33.3793C99.0243 33.3949 99.0231 33.4102 99.0219 33.4254L98.7677 36.7276C98.7328 37.1805 98.7114 37.4683 98.7145 37.677C98.716 37.7816 98.7242 37.8352 98.7284 37.8567C98.7499 37.8824 98.7787 37.9011 98.8109 37.9102C98.8323 37.9052 98.8845 37.8907 98.9806 37.8492C99.1722 37.7666 99.426 37.6292 99.825 37.412L102.354 36.035C102.371 36.0256 102.388 36.0161 102.406 36.0066C102.608 35.8961 102.833 35.7723 103.084 35.7217C103.302 35.6776 103.527 35.6777 103.745 35.7219C103.996 35.7727 104.222 35.8967 104.424 36.0073C104.441 36.0169 104.458 36.0264 104.475 36.0357L107.004 37.4148C107.403 37.6324 107.657 37.7701 107.848 37.8529C107.944 37.8945 107.997 37.909 108.018 37.914C108.05 37.905 108.079 37.8863 108.101 37.8606C108.105 37.8391 108.113 37.7854 108.115 37.6807C108.118 37.4719 108.096 37.1839 108.061 36.7307L107.807 33.4253C107.806 33.4101 107.805 33.3948 107.804 33.3792C107.789 33.1979 107.773 32.9946 107.807 32.792C107.836 32.6155 107.893 32.4448 107.977 32.2866C108.073 32.105 108.209 31.9528 108.33 31.8171C108.34 31.8055 108.35 31.794 108.361 31.7826L110.412 29.4749C110.687 29.1651 110.859 28.9709 110.97 28.8195C111.025 28.7449 111.049 28.7028 111.057 28.6854C111.057 28.6519 111.047 28.6192 111.028 28.5916C111.011 28.5821 110.968 28.5603 110.881 28.5297C110.703 28.4676 110.452 28.4041 110.05 28.3035L106.912 27.5191C106.897 27.5152 106.881 27.5114 106.866 27.5076C106.684 27.4625 106.48 27.4119 106.294 27.3119C106.132 27.2248 105.985 27.1114 105.86 26.9764C105.716 26.8213 105.616 26.6366 105.527 26.4719C105.519 26.4578 105.511 26.4438 105.504 26.43L104.044 23.7533C103.827 23.3559 103.689 23.1039 103.573 22.9312C103.515 22.8447 103.479 22.8044 103.464 22.7887C103.432 22.7788 103.398 22.7788 103.366 22.7887Z" fill="black"></path>
  <path d="M139.172 37.4247C135.878 37.4247 133.88 34.8417 133.88 30.7107V30.6927C133.88 26.5617 135.878 23.9877 139.172 23.9877C142.466 23.9877 144.464 26.5617 144.464 30.6927V30.7107C144.464 34.8417 142.466 37.4247 139.172 37.4247ZM139.172 35.2467C140.792 35.2467 141.719 33.5637 141.719 30.7107V30.6927C141.719 27.8397 140.792 26.1657 139.172 26.1657C137.552 26.1657 136.625 27.8397 136.625 30.6927V30.7107C136.625 33.5637 137.552 35.2467 139.172 35.2467Z" fill="black"></path>
  <path d="M131.54 37.3527C130.721 37.3527 130.082 36.7047 130.082 35.8947C130.082 35.0757 130.721 34.4367 131.54 34.4367C132.35 34.4367 132.998 35.0757 132.998 35.8947C132.998 36.7047 132.35 37.3527 131.54 37.3527Z" fill="black"></path>
  <path d="M124.159 37.4247C121.333 37.4247 119.461 35.7777 119.299 33.6087L119.29 33.4737H121.801L121.819 33.5367C122.008 34.5177 122.917 35.2737 124.168 35.2737C125.59 35.2737 126.589 34.3017 126.589 32.9157V32.8977C126.58 31.5297 125.581 30.5667 124.177 30.5667C123.511 30.5667 122.944 30.7647 122.503 31.1157C122.242 31.3137 122.035 31.5657 121.882 31.8357H119.515L120.109 24.2127H128.398V26.3727H122.269L121.954 30.0267H122.008C122.548 29.1537 123.619 28.6227 124.933 28.6227C127.399 28.6227 129.181 30.3957 129.181 32.8437V32.8617C129.181 35.5797 127.129 37.4247 124.159 37.4247Z" fill="black"></path>
</svg>
