<?xml version="1.0" encoding="UTF-8"?>
<svg xmlns="http://www.w3.org/2000/svg" width="217" height="61" viewBox="0 0 217 61" fill="none">
  <path d="M27.4364 27.9468C27.4364 26.9326 26.6572 26.318 25.6449 26.318H22.9313V29.5567H25.6455C26.6579 29.5567 27.4364 28.9421 27.4364 27.9468ZM20.3613 36.343V24.0557H26.0061C28.6309 24.0557 30.0592 25.8295 30.0592 27.9468C30.0592 30.0459 28.6126 31.819 26.0061 31.819H22.9313V36.343H20.3613ZM31.6238 36.343V27.3852H33.9201V28.5614C34.5536 27.8012 35.622 27.1683 36.7081 27.1683V29.4117C36.5442 29.3758 36.3457 29.3582 36.0746 29.3582C35.3144 29.3582 34.3002 29.7918 33.9201 30.3541V36.343H31.6238ZM44.4387 31.7465C44.4387 30.3894 43.6407 29.2132 42.1934 29.2132C40.7632 29.2132 39.9683 30.3894 39.9683 31.7472C39.9683 33.122 40.7632 34.2982 42.1934 34.2982C43.6407 34.2982 44.4387 33.122 44.4387 31.7465ZM37.5787 31.7465C37.5787 29.268 39.3159 27.1683 42.1934 27.1683C45.0892 27.1683 46.8265 29.2674 46.8265 31.7465C46.8265 34.2257 45.0892 36.343 42.1934 36.343C39.3159 36.343 37.5787 34.2257 37.5787 31.7465ZM54.5596 33.3029V30.2085C54.1795 29.6286 53.3474 29.2132 52.5866 29.2132C51.2667 29.2132 50.3615 30.2444 50.3615 31.7472C50.3615 33.2663 51.2667 34.2982 52.5866 34.2982C53.3474 34.2982 54.1795 33.8828 54.5596 33.3029ZM54.5596 36.343V35.0042C53.8713 35.8722 52.9314 36.343 51.863 36.343C49.6738 36.343 47.9907 34.6789 47.9907 31.7465C47.9907 28.9062 49.6378 27.1683 51.863 27.1683C52.8942 27.1683 53.8713 27.6033 54.5596 28.5072V24.0557H56.8755V36.343H54.5596ZM65.0612 36.343V35.0218C64.4649 35.6736 63.4153 36.343 61.9851 36.343C60.0676 36.343 59.163 35.2935 59.163 33.5922V27.3852H61.46V32.6877C61.46 33.9004 62.0935 34.2982 63.0705 34.2982C63.9568 34.2982 64.6634 33.8097 65.0612 33.3022V27.3852H67.3594V36.343H65.0612ZM69.0853 31.7465C69.0853 29.0688 71.0394 27.1683 73.7184 27.1683C75.5098 27.1683 76.5953 27.9468 77.1746 28.7429L75.6718 30.1537C75.2564 29.5384 74.6229 29.2132 73.8268 29.2132C72.4331 29.2132 71.4567 30.2268 71.4567 31.7472C71.4567 33.2663 72.4331 34.2982 73.8268 34.2982C74.6229 34.2982 75.2564 33.9364 75.6718 33.3388L77.1746 34.7508C76.5953 35.5469 75.5098 36.343 73.7184 36.343C71.0394 36.343 69.0853 34.4432 69.0853 31.7465ZM79.1507 33.9364V29.3941H77.7034V27.3852H79.1507V24.9962H81.4496V27.3852H83.2215V29.3941H81.4496V33.3212C81.4496 33.8822 81.7377 34.2982 82.2451 34.2982C82.588 34.2982 82.9158 34.1715 83.0406 34.0271L83.5304 35.7814C83.1868 36.0903 82.571 36.343 81.6116 36.343C80.0011 36.343 79.1507 35.511 79.1507 33.9364ZM97.9427 36.343V31.0406H92.2418V36.343H89.6738V24.0557H92.2418V28.7965H97.9427V24.0563H100.53V36.343H97.9427ZM108.754 36.343V35.0218C108.157 35.6736 107.108 36.343 105.678 36.343C103.76 36.343 102.856 35.2935 102.856 33.5922V27.3852H105.153V32.6877C105.153 33.9004 105.786 34.2982 106.764 34.2982C107.65 34.2982 108.357 33.8097 108.754 33.3022V27.3852H111.053V36.343H108.754ZM119.236 36.343V30.8426C119.236 29.6298 118.604 29.2138 117.626 29.2138C116.721 29.2138 116.034 29.7206 115.635 30.2274V36.3437H113.338V27.3852H115.635V28.5072C116.197 27.856 117.282 27.1683 118.694 27.1683C120.63 27.1683 121.553 28.2538 121.553 29.9545V36.343H119.236ZM124.291 33.9364V29.3941H122.845V27.3852H124.292V24.9962H126.591V27.3852H128.363V29.3941H126.591V33.3212C126.591 33.8822 126.879 34.2982 127.386 34.2982C127.73 34.2982 128.057 34.1715 128.183 34.0271L128.671 35.7814C128.328 36.0903 127.711 36.343 126.753 36.343C125.142 36.343 124.291 35.511 124.291 33.9364Z" fill="black"></path>
  <path fill-rule="evenodd" clip-rule="evenodd" d="M154.337 21.432C154.777 21.231 155.282 21.231 155.722 21.432C156.056 21.5845 156.274 21.8578 156.434 22.0957C156.593 22.3326 156.764 22.6464 156.959 23.0054L158.436 25.7117C158.496 25.8218 158.528 25.8815 158.555 25.9251C158.567 25.9454 158.574 25.9552 158.577 25.9588C158.588 25.9709 158.602 25.9811 158.616 25.9893C158.62 25.9909 158.632 25.9951 158.654 26.002C158.703 26.0167 158.769 26.0334 158.891 26.0638L162.061 26.8563C162.421 26.9464 162.74 27.0262 162.991 27.1138C163.247 27.2033 163.544 27.3367 163.769 27.599C164.071 27.9498 164.213 28.4101 164.162 28.8699C164.124 29.2137 163.954 29.4912 163.793 29.7096C163.635 29.9232 163.417 30.1692 163.17 30.447L161.097 32.7792C161.016 32.87 160.972 32.9195 160.941 32.958C160.926 32.9759 160.92 32.9854 160.917 32.9889C160.91 33.0034 160.905 33.0189 160.902 33.0349C160.902 33.0391 160.901 33.0508 160.902 33.0738C160.903 33.1233 160.908 33.1891 160.918 33.3103L161.174 36.6494C161.206 37.0588 161.234 37.4166 161.229 37.7027C161.225 37.9898 161.191 38.3389 160.993 38.6492C160.733 39.0579 160.308 39.333 159.828 39.4029C159.464 39.4559 159.132 39.3438 158.868 39.2299C158.606 39.1163 158.291 38.9445 157.93 38.7479L155.372 37.3526C155.237 37.2787 155.162 37.2383 155.105 37.2112C155.078 37.1985 155.064 37.1932 155.059 37.1914C155.039 37.1878 155.019 37.1878 154.999 37.1913C154.994 37.1932 154.98 37.1985 154.954 37.2111C154.896 37.2382 154.822 37.2786 154.686 37.3523L152.127 38.7456C151.767 38.9418 151.452 39.1133 151.19 39.2266C150.926 39.3403 150.594 39.4521 150.23 39.3989C149.751 39.3288 149.325 39.0536 149.065 38.645C148.868 38.3347 148.834 37.9859 148.83 37.6989C148.825 37.4129 148.853 37.0554 148.884 36.6463L149.141 33.3103C149.151 33.1891 149.155 33.1233 149.157 33.0738C149.158 33.0508 149.157 33.0391 149.157 33.0348C149.154 33.0189 149.149 33.0034 149.142 32.9889C149.139 32.9854 149.132 32.9759 149.118 32.9579C149.087 32.9194 149.043 32.87 148.962 32.7791L146.889 30.447C146.642 30.1691 146.424 29.9232 146.266 29.7096C146.105 29.4912 145.935 29.2137 145.897 28.8699C145.846 28.4102 145.988 27.9498 146.29 27.599C146.515 27.3367 146.812 27.2033 147.068 27.1138C147.318 27.0262 147.638 26.9464 147.998 26.8563L148.03 26.8483L151.168 26.0638C151.29 26.0334 151.356 26.0167 151.405 26.002C151.427 25.9951 151.439 25.9909 151.443 25.9892C151.457 25.9811 151.471 25.9709 151.482 25.9588C151.485 25.9552 151.492 25.9454 151.504 25.9251C151.531 25.8815 151.563 25.8218 151.623 25.7118L153.1 23.0053C153.296 22.6463 153.467 22.3325 153.626 22.0956C153.785 21.8577 154.003 21.5845 154.337 21.432ZM154.98 22.7887C154.965 22.8044 154.929 22.8447 154.871 22.9312C154.756 23.1039 154.617 23.3559 154.4 23.7533L152.94 26.4301C152.933 26.4439 152.925 26.4579 152.917 26.472C152.828 26.6367 152.728 26.8214 152.584 26.9764C152.459 27.1115 152.312 27.2248 152.15 27.3119C151.964 27.4119 151.76 27.4625 151.578 27.5075C151.563 27.5114 151.547 27.5152 151.532 27.519L148.394 28.3035C147.992 28.4041 147.741 28.4676 147.563 28.5297C147.476 28.5603 147.433 28.5821 147.416 28.5916C147.397 28.6192 147.387 28.6519 147.387 28.6854C147.395 28.7028 147.419 28.7449 147.474 28.8195C147.585 28.9709 147.757 29.1651 148.032 29.4749L150.083 31.7826C150.094 31.794 150.104 31.8055 150.114 31.8171C150.235 31.9528 150.371 32.105 150.467 32.2866C150.551 32.4449 150.608 32.6155 150.637 32.7921C150.671 32.9947 150.655 33.198 150.64 33.3793C150.639 33.3949 150.638 33.4102 150.637 33.4254L150.383 36.7276C150.348 37.1805 150.326 37.4683 150.329 37.677C150.331 37.7816 150.339 37.8352 150.343 37.8567C150.365 37.8824 150.394 37.9011 150.426 37.9102C150.447 37.9052 150.499 37.8907 150.595 37.8492C150.787 37.7666 151.041 37.6292 151.44 37.412L153.969 36.035C153.986 36.0256 154.003 36.0161 154.021 36.0066C154.222 35.8961 154.448 35.7723 154.699 35.7217C154.917 35.6776 155.142 35.6777 155.36 35.7219C155.611 35.7727 155.837 35.8967 156.038 36.0073C156.056 36.0169 156.073 36.0264 156.09 36.0357L158.619 37.4148C159.018 37.6324 159.272 37.7701 159.463 37.8529C159.559 37.8945 159.612 37.909 159.633 37.914C159.665 37.905 159.694 37.8863 159.716 37.8606C159.72 37.8391 159.728 37.7854 159.73 37.6807C159.733 37.4719 159.711 37.1839 159.676 36.7307L159.422 33.4253C159.421 33.4101 159.42 33.3948 159.418 33.3792C159.404 33.1979 159.388 32.9946 159.422 32.792C159.451 32.6155 159.508 32.4448 159.592 32.2866C159.688 32.105 159.824 31.9528 159.945 31.8171C159.955 31.8055 159.965 31.794 159.975 31.7826L162.027 29.4749C162.302 29.1651 162.474 28.9709 162.585 28.8195C162.64 28.7449 162.664 28.7028 162.672 28.6854C162.672 28.6519 162.662 28.6192 162.643 28.5916C162.626 28.5821 162.583 28.5603 162.496 28.5297C162.318 28.4676 162.067 28.4041 161.665 28.3035L158.527 27.5191C158.512 27.5152 158.496 27.5114 158.481 27.5076C158.299 27.4625 158.095 27.4119 157.909 27.3119C157.746 27.2248 157.6 27.1114 157.475 26.9764C157.331 26.8213 157.231 26.6366 157.141 26.4719C157.134 26.4578 157.126 26.4438 157.119 26.43L155.659 23.7533C155.442 23.3559 155.304 23.1039 155.188 22.9312C155.13 22.8447 155.094 22.8044 155.079 22.7887C155.047 22.7788 155.012 22.7788 154.98 22.7887Z" fill="black"></path>
  <path d="M190.788 37.4247C187.494 37.4247 185.496 34.8417 185.496 30.7107V30.6927C185.496 26.5617 187.494 23.9877 190.788 23.9877C194.082 23.9877 196.08 26.5617 196.08 30.6927V30.7107C196.08 34.8417 194.082 37.4247 190.788 37.4247ZM190.788 35.2467C192.408 35.2467 193.335 33.5637 193.335 30.7107V30.6927C193.335 27.8397 192.408 26.1657 190.788 26.1657C189.168 26.1657 188.241 27.8397 188.241 30.6927V30.7107C188.241 33.5637 189.168 35.2467 190.788 35.2467Z" fill="black"></path>
  <path d="M183.155 37.3527C182.336 37.3527 181.697 36.7047 181.697 35.8947C181.697 35.0757 182.336 34.4367 183.155 34.4367C183.965 34.4367 184.613 35.0757 184.613 35.8947C184.613 36.7047 183.965 37.3527 183.155 37.3527Z" fill="black"></path>
  <path d="M175.775 37.4247C172.949 37.4247 171.077 35.7777 170.915 33.6087L170.906 33.4737H173.417L173.435 33.5367C173.624 34.5177 174.533 35.2737 175.784 35.2737C177.206 35.2737 178.205 34.3017 178.205 32.9157V32.8977C178.196 31.5297 177.197 30.5667 175.793 30.5667C175.127 30.5667 174.56 30.7647 174.119 31.1157C173.858 31.3137 173.651 31.5657 173.498 31.8357H171.131L171.725 24.2127H180.014V26.3727H173.885L173.57 30.0267H173.624C174.164 29.1537 175.235 28.6227 176.549 28.6227C179.015 28.6227 180.797 30.3957 180.797 32.8437V32.8617C180.797 35.5797 178.745 37.4247 175.775 37.4247Z" fill="black"></path>
</svg>
