<svg width="60" height="61" viewBox="0 0 60 61" fill="none" xmlns="http://www.w3.org/2000/svg">
<path fill-rule="evenodd" clip-rule="evenodd" d="M29.9996 16.4043C22.0499 16.4043 15.5996 22.8546 15.5996 30.8043C15.5996 38.754 22.0499 45.2043 29.9996 45.2043C37.9337 45.2043 44.3996 38.754 44.3996 30.8043C44.3996 22.8546 37.9337 16.4043 29.9996 16.4043ZM39.5111 23.042C41.2291 25.1349 42.2599 27.8056 42.2912 30.695C41.8851 30.6169 37.8243 29.7891 33.7324 30.3045C33.6387 30.1015 33.5606 29.8828 33.4669 29.6642C33.217 29.0707 32.9358 28.4616 32.6547 27.8837C37.184 26.0407 39.2456 23.3856 39.5111 23.042ZM29.9996 18.5284C33.1233 18.5284 35.9814 19.6997 38.1523 21.6208C37.9337 21.9331 36.0751 24.4165 31.702 26.0564C29.6872 22.3548 27.4538 19.3249 27.1102 18.8564C28.0317 18.6377 29 18.5284 29.9996 18.5284ZM24.7675 19.6841C25.0955 20.1214 27.282 23.167 29.328 26.7904C23.5805 28.321 18.5046 28.2898 17.958 28.2898C18.7545 24.4789 21.3315 21.3084 24.7675 19.6841ZM17.6925 30.8199C17.6925 30.695 17.6925 30.57 17.6925 30.4451C18.2235 30.4607 24.1896 30.5388 30.3276 28.6958C30.6868 29.383 31.0148 30.0859 31.3271 30.7887C31.171 30.8355 30.9992 30.8824 30.843 30.9292C24.502 32.9752 21.1285 38.5666 20.8473 39.0351C18.895 36.8642 17.6925 33.9748 17.6925 30.8199ZM29.9996 43.1115C27.1571 43.1115 24.5332 42.1431 22.456 40.5188C22.6747 40.0659 25.1736 35.2555 32.1081 32.8347C32.1393 32.8191 32.1549 32.8191 32.1862 32.8034C33.9198 37.2859 34.6226 41.0498 34.81 42.1275C33.3263 42.7678 31.702 43.1115 29.9996 43.1115ZM36.856 41.003C36.7311 40.2533 36.0751 36.6611 34.4664 32.2412C38.3241 31.6321 41.6976 32.6316 42.1193 32.7722C41.5883 36.1926 39.6204 39.1444 36.856 41.003Z" fill="white"/>
</svg>
