<svg width="61" height="61" viewBox="0 0 61 61" fill="none" xmlns="http://www.w3.org/2000/svg">
<rect x="0.615479" y="0.539062" width="60" height="60" rx="30" fill="#ED8770"/>
<path d="M46.0672 16.9605C40.808 13.8975 34.0752 15.718 31.041 21.006C30.8676 21.295 30.7232 21.6128 30.5787 21.9307C29.6251 19.8502 28.0647 18.1164 26.0708 16.9605C20.8117 13.8975 14.0788 15.718 11.0446 21.006C8.01051 26.323 9.80209 33.0848 15.0613 36.1478C16.5639 37.0147 18.1532 37.477 19.7714 37.5926L14.9746 45.9437H22.1409L30.0874 32.0734C30.2608 31.7844 30.4053 31.4665 30.5498 31.1776C31.5034 33.2581 33.0638 34.9919 35.0576 36.1478C36.5603 37.0147 38.1496 37.477 39.7678 37.5926L34.9998 45.9148H42.1662L50.1127 32.0734C53.118 26.7853 51.3264 20.0235 46.0672 16.9605ZM24.915 29.0681C23.5279 31.4954 20.4649 32.3045 18.0376 30.9175C15.6392 29.5305 14.8012 26.4386 16.1882 24.0113C17.5753 21.5839 20.6383 20.7748 23.0656 22.1619C25.4929 23.5778 26.302 26.6697 24.915 29.0681ZM44.9113 29.0681C43.5243 31.4954 40.4613 32.3045 38.034 30.9175C35.6356 29.5305 34.7976 26.4386 36.1846 24.0113C37.5716 21.5839 40.6347 20.7748 43.062 22.1619C45.4893 23.5778 46.2984 26.6697 44.9113 29.0681Z" fill="white"/>
</svg>
