<svg width="61" height="61" viewBox="0 0 61 61" fill="none" xmlns="http://www.w3.org/2000/svg">
<rect x="0.769287" y="0.539062" width="60" height="60" rx="30" fill="#1DBF73"/>
<g clip-path="url(#clip0_4533_36935)">
<path d="M47.778 29.3098H46.3083C45.3622 29.3098 44.8553 30.0183 44.8553 31.199V35.4672H42.0679V29.3093H40.885C39.9389 29.3093 39.4324 30.0178 39.4324 31.1986V35.4668H36.6446V27.0322H39.4324V28.3144C39.8888 27.3191 40.5138 27.0322 41.4433 27.0322H44.8557V28.3144C45.3121 27.3191 45.9371 27.0322 46.8665 27.0322H47.7784L47.778 29.3098ZM36.0363 31.9075H30.2247C30.3767 32.8523 30.9679 33.3922 31.9645 33.3922C32.7077 33.3922 33.2317 33.0882 33.4008 32.5488L35.8672 33.2402C35.2592 34.7078 33.7553 35.6021 31.9645 35.6021C28.9404 35.6021 27.555 33.2569 27.555 31.2499C27.555 29.2764 28.7713 26.9145 31.7954 26.9145C35.0054 26.9145 36.0697 29.3098 36.0697 31.0813C36.0718 31.357 36.0606 31.6328 36.0363 31.9075ZM33.3332 30.2713C33.2656 29.5456 32.7416 28.8714 31.7959 28.8714C30.917 28.8714 30.3938 29.2588 30.2247 30.2713H33.3332ZM22.69 35.4668H25.1392L28.1972 27.0331H25.3931L23.9063 31.9413L22.3856 27.0326H19.5978L22.69 35.4668ZM11.2694 35.4668H14.0401V29.3098H16.6764V35.4672H19.43V27.0326H14.0401V26.5099C14.0401 25.9363 14.4455 25.5822 15.0877 25.5822H16.676V23.3047H14.6318C12.6209 23.3047 11.2694 24.5364 11.2694 26.3408V27.0326H9.69824V29.3102H11.2694V35.4668Z" fill="white"/>
<path d="M49.5038 35.7228C50.4555 35.7228 51.227 34.9522 51.227 34.0018C51.227 33.0514 50.4555 32.2812 49.5038 32.2812C48.5522 32.2812 47.7803 33.0518 47.7803 34.0022C47.7803 34.9526 48.5522 35.7228 49.5038 35.7228Z" fill="white"/>
</g>
<defs>
<clipPath id="clip0_4533_36935">
<rect width="41.5385" height="12.528" fill="white" transform="translate(9.69238 23.3047)"/>
</clipPath>
</defs>
</svg>
