<svg width="61" height="61" viewBox="0 0 61 61" fill="none" xmlns="http://www.w3.org/2000/svg">
<rect x="0.846191" y="0.539062" width="60" height="60" rx="30" fill="#6FDA44"/>
<path d="M39.4681 34.5101C38.0313 34.5101 36.6849 33.9018 35.4617 32.9115L35.7596 31.5135L35.7725 31.4617C36.0377 29.9733 36.8792 27.4749 39.4681 27.4749C41.4096 27.4749 42.9889 29.0542 42.9889 30.9957C42.9823 32.9309 41.4032 34.5101 39.4681 34.5101ZM39.4681 23.9088C36.1607 23.9088 33.5979 26.0576 32.556 29.5913C30.9637 27.2031 29.7598 24.336 29.0545 21.9219H25.4948V31.1834C25.4948 33.0086 24.0062 34.497 22.181 34.497C20.3559 34.497 18.8674 33.0086 18.8674 31.1834V21.9219H15.3074V31.1834C15.2945 34.9762 18.3817 38.0891 22.1743 38.0891C25.9671 38.0891 29.0543 34.9762 29.0543 31.1834V29.6302C29.7467 31.0734 30.5946 32.5296 31.6237 33.8241L29.4425 44.0757H33.0864L34.6655 36.6394C36.0505 37.526 37.6427 38.0827 39.4679 38.0827C43.3705 38.0827 46.5484 34.8855 46.5484 30.9827C46.5484 27.0865 43.3707 23.9088 39.4681 23.9088Z" fill="white"/>
</svg>
